<svg height="512" viewBox="0 0 64 64" width="512" xmlns="http://www.w3.org/2000/svg"><g id="Flat"><g id="Stroke_copy_2" data-name="Stroke copy 2"><g><g><rect fill="#e9f1f2" height="58" rx="4" width="36" x="25" y="3"/><path d="m61 45v12a4 4 0 0 1 -4 4h-28a4 4 0 0 1 -4-4v-50a4 4 0 0 1 4-4h6v38a4 4 0 0 0 4 4z" fill="#d0d8da"/><path d="m37 9a2 2 0 0 1 -2 2h-4a2 2 0 0 0 -2 2v42a2 2 0 0 0 2 2h24a2 2 0 0 0 2-2v-46a2 2 0 0 0 -2-2h-16a2 2 0 0 0 -2 2z" fill="#84d2f4"/><g fill="#57b7eb"><path d="m55 57a2 2 0 0 0 2-2v-46a2 2 0 0 0 -2-2h-16.079a1.978 1.978 0 0 0 -1.921 2.041 2 2 0 0 1 -2 1.959h-4a2 2 0 0 0 -2 2v42a2 2 0 0 0 2 2zm-16-12a4 4 0 0 1 -4-4v-27h1a2 2 0 0 0 2-2 2 2 0 0 1 2-2h12a2 2 0 0 1 2 2v33z"/><circle cx="29" cy="7" r="1"/><circle cx="33" cy="7" r="1"/></g></g><path d="m47 11h6v42h-6z" fill="#4891d3"/><g><path d="m5 15h48a0 0 0 0 1 0 0v34a0 0 0 0 1 0 0h-48a2 2 0 0 1 -2-2v-30a2 2 0 0 1 2-2z" fill="#f9e109"/><path d="m53 40v9h-48a2.006 2.006 0 0 1 -2-2v-30a2.006 2.006 0 0 1 2-2h9v13a12 12 0 0 0 12 12z" fill="#fcbc04"/><path d="m3 22h50v6h-50z" fill="#93999a"/><g><path d="m32 38a1 1 0 0 1 -1-1v-4a1 1 0 0 1 2 0v4a1 1 0 0 1 -1 1z" fill="#84d2f4"/><path d="m35 38a1 1 0 0 1 -1-1v-4a1 1 0 0 1 2 0v4a1 1 0 0 1 -1 1z" fill="#84d2f4"/><g fill="#57b7eb"><path d="m29 38a1 1 0 0 1 -1-1v-4a1 1 0 0 1 2 0v4a1 1 0 0 1 -1 1z"/><path d="m34 49h-4l1-10h2z"/><path d="m46 49h-4l1-10h2z"/></g><path d="m46 49h-4l1-10h2l.31 3.07a3.818 3.818 0 0 1 -1.31.75v2.18a2.006 2.006 0 0 0 1.8 1.99z" fill="#4891d3"/><path d="m34 49h-4l1-10h2l.31 3.07a3.818 3.818 0 0 1 -1.31.75v2.18a2.006 2.006 0 0 0 1.8 1.99z" fill="#4891d3"/><ellipse cx="44" cy="37" fill="#84d2f4" rx="4" ry="5"/><path d="m36 37c0 2.761-1.791 5-4 5s-4-2.239-4-5z" fill="#84d2f4"/><path d="m47.37 39.7a3.9 3.9 0 0 1 -3.37 2.3c-2.21 0-4-2.24-4-5a5.039 5.039 0 0 1 2.63-4.69 5.894 5.894 0 0 0 -.63 2.69c0 2.76 1.79 5 4 5a3.377 3.377 0 0 0 1.37-.3z" fill="#57b7eb"/><path d="m35.37 39.7a3.9 3.9 0 0 1 -3.37 2.3c-2.21 0-4-2.24-4-5h2.34a4.076 4.076 0 0 0 3.66 3 3.377 3.377 0 0 0 1.37-.3z" fill="#57b7eb"/></g><path d="m3 22h11v6h-11z" fill="#656b76"/><rect fill="#57b7eb" height="8" rx="2" width="12" x="10" y="34"/><path d="m22 39.31v.69a2.006 2.006 0 0 1 -2 2h-8a2.006 2.006 0 0 1 -2-2v-4a2.006 2.006 0 0 1 2-2h3.6a12.024 12.024 0 0 0 6.4 5.31z" fill="#4891d3"/><path d="m16 34h4a2 2 0 0 1 2 2v4a2 2 0 0 1 -2 2h-4a0 0 0 0 1 0 0v-8a0 0 0 0 1 0 0z" fill="#f89c8d"/><path d="m22 39.31v.69a2.006 2.006 0 0 1 -2 2h-4v-7.36a11.941 11.941 0 0 0 6 4.67z" fill="#f8664f"/></g></g></g></g></svg>