<svg height="512" viewBox="0 0 64 64" width="512" xmlns="http://www.w3.org/2000/svg"><g id="Flat"><g id="Stroke_copy_2" data-name="Stroke copy 2"><g><g><rect fill="#e9f1f2" height="58" rx="4" width="38" x="13" y="3"/><path d="m51 45v12a4 4 0 0 1 -4 4h-30a4 4 0 0 1 -4-4v-50a4 4 0 0 1 4-4h6v38a4 4 0 0 0 4 4z" fill="#d0d8da"/><path d="m25 9a2 2 0 0 1 -2 2h-4a2 2 0 0 0 -2 2v42a2 2 0 0 0 2 2h26a2 2 0 0 0 2-2v-46a2 2 0 0 0 -2-2h-18a2 2 0 0 0 -2 2z" fill="#84d2f4"/><g fill="#57b7eb"><path d="m19 57h26a2 2 0 0 0 2-2v-46a2 2 0 0 0 -2-2h-18.079a1.978 1.978 0 0 0 -1.921 2.041 2 2 0 0 1 -2 1.959h-4a2 2 0 0 0 -2 2v42a2 2 0 0 0 2 2zm8-12a4 4 0 0 1 -4-4v-27h1a2 2 0 0 0 2-2 2 2 0 0 1 2-2h14a2 2 0 0 1 2 2v33z"/><circle cx="17" cy="7" r="1"/><circle cx="21" cy="7" r="1"/></g></g><g><rect fill="#c4f236" height="20" rx="4" width="22" x="3" y="15"/><path d="m25 31a4 4 0 0 1 -4 4h-14a4 4 0 0 1 -4-4v-12a4 4 0 0 1 4-4h2v1a15 15 0 0 0 15 15z" fill="#a1d51c"/><rect fill="#f9e109" height="12" rx="2" width="10" x="9" y="19"/><g fill="#fcbc04"><path d="m18.71 30.04a2.03 2.03 0 0 1 -1.71.96h-6a2.006 2.006 0 0 1 -2-2v-8a1.978 1.978 0 0 1 .46-1.27 15.074 15.074 0 0 0 9.25 10.31z"/><path d="m18.71 30.04a2.03 2.03 0 0 1 -1.71.96h-6a2.006 2.006 0 0 1 -2-2v-8a1.978 1.978 0 0 1 .46-1.27 15.074 15.074 0 0 0 9.25 10.31z"/><path d="m10.231 19.154a2 2 0 0 0 -1.231 1.846v8a2 2 0 0 0 2 2h6a2 2 0 0 0 2-2h-7a1 1 0 0 1 -1-1h8v-7h-6a3 3 0 0 1 -2.769-1.846z"/></g><path d="m16.52 29h-4.52a1 1 0 0 1 -1-1h4a15.093 15.093 0 0 1 -5.54-8.28 2.041 2.041 0 0 0 -.46 1.28v8a2.006 2.006 0 0 0 2 2h6a2.03 2.03 0 0 0 1.71-.96 15.684 15.684 0 0 1 -2.19-1.04z" fill="#e59730"/><path d="m19 27h-10a2 2 0 0 1 -2-2 2 2 0 0 1 2-2h10a2 2 0 0 1 2 2 2 2 0 0 1 -2 2z" fill="#f89c8d"/><path d="m9 23a2 2 0 0 0 0 4h10a2 2 0 0 0 2-2h-10a2 2 0 0 1 -2-2z" fill="#f8664f"/><path d="m13.82 27h-4.82a2.006 2.006 0 0 1 -2-2 2.015 2.015 0 0 1 2-2h1.73a14.734 14.734 0 0 0 3.09 4z" fill="#f8664f"/><path d="m13.82 27h-4.82a2 2 0 0 1 0-4 2.006 2.006 0 0 0 2 2h1a14.411 14.411 0 0 0 1.82 2z" fill="#cc5144"/><path d="m15 23v1a1 1 0 0 1 -2 0v-1z" fill="#f8664f"/><path d="m18 23v1a1 1 0 0 1 -2 0v-1z" fill="#f8664f"/><path d="m12 23v1a1 1 0 0 1 -2 0v-1z" fill="#f8664f"/><path d="m11.75 24.65a.992.992 0 0 1 -.75.35 1 1 0 0 1 -1-1v-1h.73a16.235 16.235 0 0 0 1.02 1.65z" fill="#cc5144"/></g><g><path d="m31 33h12a4 4 0 0 1 4 4v12a4 4 0 0 1 -4 4h-11a5 5 0 0 1 -5-5v-11a4 4 0 0 1 4-4z" fill="#f9e109"/><path d="m47 47v2a4 4 0 0 1 -4 4h-11a5 5 0 0 1 -5-5v-11a4 4 0 0 1 4-4h2v6a8 8 0 0 0 8 8z" fill="#fcbc04"/><path d="m36 45a.994.994 0 0 1 -.514-.143l-5-3a1 1 0 1 1 1.03-1.714l5 3a1 1 0 0 1 -.516 1.857z" fill="#4891d3"/><path d="m38 45a1 1 0 0 1 -.768-.36l-5-6a1 1 0 0 1 1.536-1.28l5 6a1 1 0 0 1 -.768 1.64z" fill="#4891d3"/><g fill="#2d72bc"><path d="m32.23 38.64a1.01 1.01 0 0 1 .13-1.41.989.989 0 0 1 .64-.23v2c0 .2.01.4.02.59z"/><path d="m35.6 44.91a.536.536 0 0 1 -.11-.05l-5-3a1 1 0 0 1 1.02-1.72l1.8 1.08a8.163 8.163 0 0 0 2.29 3.69z"/><path d="m35.6 44.91a.536.536 0 0 1 -.11-.05l-5-3a1 1 0 0 1 1.02-1.72l1.8 1.08a8.163 8.163 0 0 0 2.29 3.69z"/><path d="m33.02 39.59-.79-.95a1.01 1.01 0 0 1 .13-1.41.989.989 0 0 1 .64-.23v2c0 .2.01.4.02.59z"/></g><path d="m31 43h12a0 0 0 0 1 0 0v2a4 4 0 0 1 -4 4h-4a4 4 0 0 1 -4-4v-2a0 0 0 0 1 0 0z" fill="#84d2f4"/><path d="m42.46 47a3.98 3.98 0 0 1 -3.46 2h-4a4 4 0 0 1 -4-4v-2h3.08a7.969 7.969 0 0 0 6.92 4z" fill="#57b7eb"/><path d="m42.46 47a3.98 3.98 0 0 1 -3.46 2h-4a4 4 0 0 1 -4-4v-2h2a4 4 0 0 0 4 4z" fill="#4891d3"/></g><g><path d="m7 41h12a4 4 0 0 1 4 4v12a4 4 0 0 1 -4 4h-11a5 5 0 0 1 -5-5v-11a4 4 0 0 1 4-4z" fill="#f9e109"/><path d="m23 55v2a4 4 0 0 1 -4 4h-11a5 5 0 0 1 -5-5v-11a4 4 0 0 1 4-4h2v6a8 8 0 0 0 8 8z" fill="#fcbc04"/><path d="m13.638 51a1 1 0 0 1 -.965-.738l-.823-3.022-1.975-.248a1 1 0 0 1 .249-1.984l2.639.331a1 1 0 0 1 .84.729l1 3.669a1 1 0 0 1 -.965 1.263z" fill="#4891d3"/><path d="m15 57h-4l-1-8h6z" fill="#84d2f4"/><path d="m15.29 54.67-.29 2.33h-4l-1-8h2.25l.25 2.03a4.551 4.551 0 0 0 2.79 3.64z" fill="#57b7eb"/><path d="m15.27 54.81-.27 2.19h-4l-.71-5.65a8 8 0 0 0 4.98 3.46z" fill="#4891d3"/><path d="m15.5 58h-5a1 1 0 0 1 0-2h5a1 1 0 0 1 0 2z" fill="#2d72bc"/></g><g><path d="m39 11h18a4 4 0 0 1 4 4v18a4 4 0 0 1 -4 4h-17a5 5 0 0 1 -5-5v-17a4 4 0 0 1 4-4z" fill="#57b7eb"/><path d="m61 30v3a4 4 0 0 1 -4 4h-17a5 5 0 0 1 -5-5v-17a4 4 0 0 1 4-4h4v3a16 16 0 0 0 16 16z" fill="#4891d3"/><g><path d="m43 20a9 9 0 0 0 9 9l5-13z" fill="#f7f754"/><path d="m57 16-5 13a9 9 0 0 1 -9-9l.88-.25a5.375 5.375 0 0 0 1.67 1.83 2.464 2.464 0 0 0 .34.22 5.077 5.077 0 0 0 .81.4c.01 0 .01 0 .02.01a6 6 0 0 0 5.38-.52c.13-.08.24-.16.36-.25a5.087 5.087 0 0 0 .65-.58 6.01 6.01 0 0 0 1.24-1.98l.92-2.39z" fill="#f9e109"/><path d="m43 20a9 9 0 0 0 9 9v1.813a2 2 0 0 1 -2.337 1.978 13.016 13.016 0 0 1 -10.454-10.454 2 2 0 0 1 1.973-2.337z" fill="#e59730"/><path d="m57 16-1.52 3.95a2.968 2.968 0 0 1 -2.47-2.81z" fill="#f89c8d"/><path d="m53.4 25.35-1.4 3.65a9.059 9.059 0 0 1 -2.96-.5 2.737 2.737 0 0 1 -.04-.5 3 3 0 0 1 4.4-2.65z" fill="#f8664f"/><path d="m50 20a2 2 0 0 1 -4 0 1.9 1.9 0 0 1 .23-.92l2.79-.8a2 2 0 0 1 .98 1.72z" fill="#f89c8d"/><path d="m52.2 28.48-.2.52a9 9 0 0 1 -9-9l1.05-.3a15.986 15.986 0 0 0 8.15 8.78z" fill="#fcbc04"/><path d="m52.2 28.48-.2.52a9.059 9.059 0 0 1 -2.96-.5 2.737 2.737 0 0 1 -.04-.5 2.9 2.9 0 0 1 .29-1.28 15.337 15.337 0 0 0 2.91 1.76z" fill="#cc5144"/><path d="m57 16-1.52 3.95a2.908 2.908 0 0 1 -1.34-.59 3.478 3.478 0 0 0 .21-.48l.92-2.39z" fill="#f8664f"/></g></g></g></g></g></svg>