<svg height="512" viewBox="0 0 64 64" width="512" xmlns="http://www.w3.org/2000/svg"><g id="Flat"><g id="Stroke_copy_2" data-name="Stroke copy 2"><g><g fill="#57b7eb"><path d="m17 45h-10a1 1 0 0 1 0-2h10a1 1 0 0 1 0 2z"/><path d="m9 54h-4a1 1 0 0 1 0-2h4a1 1 0 0 1 0 2z"/><path d="m6 49h-2a1 1 0 0 1 0-2h2a1 1 0 0 1 0 2z"/><g><path d="m53 59h-12a1 1 0 0 0 0 2h12a1 1 0 0 0 0-2z"/><path d="m17 59h-14a1 1 0 0 0 0 2h14a1 1 0 0 0 0-2z"/><path d="m36 59h-4a1 1 0 0 0 0 2h4a1 1 0 0 0 0-2z"/><path d="m28 59h-2a1 1 0 0 0 0 2h2a1 1 0 0 0 0-2z"/></g></g><path d="m6 15h13a3 3 0 0 1 3 3v15a0 0 0 0 1 0 0h-16a3 3 0 0 1 -3-3v-12a3 3 0 0 1 3-3z" fill="#d0d8da"/><path d="m22 29v4h-16a3 3 0 0 1 -3-3v-12a3 3 0 0 1 3-3v2a12 12 0 0 0 12 12z" fill="#93999a"/><path d="m52 43a9 9 0 1 0 9 9 9 9 0 0 0 -9-9zm0 14a5 5 0 1 1 5-5 5 5 0 0 1 -5 5z" fill="#93999a"/><path d="m17 43a9 9 0 1 0 9 9 9 9 0 0 0 -9-9zm0 14a5 5 0 1 1 5-5 5 5 0 0 1 -5 5z" fill="#93999a"/><path d="m27.5 37h-15.5a4 4 0 0 1 -4-4h17.5z" fill="#57b7eb"/><g><path d="m14.639 25a1 1 0 0 1 -1-1v-2.786l-1.764-.222a1 1 0 1 1 .25-1.984l2.639.332a1 1 0 0 1 .875.992v3.668a1 1 0 0 1 -1 1z" fill="#57b7eb"/><path d="m17 33h-4l-1-10h6z" fill="#f89c8d"/><g><path d="m17.7 26-.7 7h-4l-1-10h1.13a3.992 3.992 0 0 0 3.87 3z" fill="#f8664f"/><g fill="#cc5144"><path d="m17.4 28.98-.4 4.02h-4l-.53-5.35a11.746 11.746 0 0 0 4.93 1.33z"/><path d="m17.4 28.98-.4 4.02h-4l-.53-5.35a11.746 11.746 0 0 0 4.93 1.33z"/></g></g><path d="m11 29a.994.994 0 0 1 -.514-.143l-5-3a1 1 0 0 1 1.03-1.714l5 3a1 1 0 0 1 -.516 1.857z" fill="#57b7eb"/><path d="m13 29a1 1 0 0 1 -.707-.293l-5-5a1 1 0 1 1 1.414-1.414l5 5a1 1 0 0 1 -.707 1.707z" fill="#84d2f4"/><path d="m13.95 28.3a.948.948 0 0 1 -.24.41 1.014 1.014 0 0 1 -1.42 0l-5-5a1 1 0 0 1 -.04-1.37 12.051 12.051 0 0 0 6.7 5.96z" fill="#57b7eb"/><path d="m13.95 28.3a.948.948 0 0 1 -.24.41 1.014 1.014 0 0 1 -1.42 0l-5-5a1 1 0 0 1 -.04-1.37 12.051 12.051 0 0 0 6.7 5.96z" fill="#57b7eb"/><g><path d="m7 27h10a0 0 0 0 1 0 0v2a4 4 0 0 1 -4 4h-2a4 4 0 0 1 -4-4v-2a0 0 0 0 1 0 0z" fill="#f9e109"/><path d="m17 28.96v.04a4 4 0 0 1 -4 4h-2a4 4 0 0 1 -4-4v-2h4.37a11.876 11.876 0 0 0 5.63 1.96z" fill="#fcbc04"/></g><path d="m16.87 30a3.992 3.992 0 0 1 -3.87 3h-2a4 4 0 0 1 -4-4v-2h2.13a3.992 3.992 0 0 0 3.87 3z" fill="#e59730"/></g><path d="m53 7h6v6h-6z" fill="#d0d8da"/><path d="m61 7h-10l5-4z" fill="#f9e109"/><path d="m27.5 37h-3.02a3.974 3.974 0 0 0 -3.45-2h-12.49a3.989 3.989 0 0 1 -.54-2h17.5z" fill="#4891d3"/><path d="m54 59a10 10 0 0 1 -10-10 9.075 9.075 0 0 1 .09-1.28 8.837 8.837 0 0 0 -1.09 4.28 8.988 8.988 0 0 0 15.98 5.66 9.819 9.819 0 0 1 -4.98 1.34z" fill="#656b76"/><path d="m19 59a10 10 0 0 1 -10-10 9.075 9.075 0 0 1 .09-1.28 8.837 8.837 0 0 0 -1.09 4.28 8.988 8.988 0 0 0 15.98 5.66 9.819 9.819 0 0 1 -4.98 1.34z" fill="#656b76"/><path d="m59 7v2h-1a3 3 0 0 0 -3 3v1h-2v-6z" fill="#93999a"/><path d="m61 7h-10l4.15-3.32a2.247 2.247 0 0 0 2.25 2.32h2.35z" fill="#fcbc04"/><path d="m52.9 51.57-9.316-19.57h4.916a1.5 1.5 0 0 1 0 3h-.5a1 1 0 0 0 0 2h.5a3.5 3.5 0 0 0 0-7h-6.5a1 1 0 0 0 -.9 1.43l2.173 4.57h-15.155l-1.724-3.447a1 1 0 1 0 -1.789.894l1.527 3.053-9.964 14.945a1 1 0 0 0 .832 1.555h18a1 1 0 0 0 .832-.445l8.939-13.409 6.329 13.284a1 1 0 1 0 1.806-.86zm-25.738-13.01 6.22 12.44h-14.514zm7.962 11.452-6.006-12.012h14.014z" fill="#d0d8da"/><path d="m52 39a1 1 0 0 1 0-2 4 4 0 0 0 4-4v-2a4 4 0 0 0 -4-4h-7.806a5.274 5.274 0 0 0 -3.282 1.151 3.935 3.935 0 0 1 -6.192-1.828 1.931 1.931 0 0 0 -1.835-1.323h-5.885a1 1 0 0 1 0-2h5.885a3.928 3.928 0 0 1 3.732 2.69 1.935 1.935 0 0 0 3.045.9 7.281 7.281 0 0 1 4.532-1.59h7.806a6.006 6.006 0 0 1 6 6v2a6.006 6.006 0 0 1 -6 6z" fill="#57b7eb"/><path d="m32 21h-5a1 1 0 0 1 0-2h5a1 1 0 0 1 0 2z" fill="#57b7eb"/><path d="m27 17a1 1 0 0 1 -1-1 5.006 5.006 0 0 0 -5-5h-14a1 1 0 0 1 0-2h14a7.009 7.009 0 0 1 7 7 1 1 0 0 1 -1 1z" fill="#57b7eb"/><path d="m51 23h-7a1 1 0 0 1 0-2h7a4 4 0 0 0 4-4 1 1 0 0 1 2 0 6.006 6.006 0 0 1 -6 6z" fill="#57b7eb"/><path d="m32 33h-10v-4h6a4 4 0 0 1 4 4z" fill="#84d2f4"/><path d="m32 33h-10v-4h2.54a3.98 3.98 0 0 0 3.46 2h3.46a3.989 3.989 0 0 1 .54 2z" fill="#57b7eb"/></g></g></g></svg>