<svg height="512" viewBox="0 0 64 64" width="512" xmlns="http://www.w3.org/2000/svg"><g id="Flat"><g id="Stroke_copy_2" data-name="Stroke copy 2"><g><g><path d="m35 38h18a8 8 0 0 1 8 8v15a0 0 0 0 1 0 0h-34a0 0 0 0 1 0 0v-15a8 8 0 0 1 8-8z" fill="#f8664f"/><g fill="#cc5144"><path d="m55 55v-5a2 2 0 0 0 -2 2v3h-4a14 14 0 0 1 -14-14v-3a8 8 0 0 0 -8 8v15h34v-6z"/><path d="m50.356 44.3-3.356 4.7-3-5 6-4a3.339 3.339 0 0 1 .356 4.3z"/><path d="m37.644 44.3 3.356 4.7 3-5-6-4a3.339 3.339 0 0 0 -.356 4.3z"/></g><path d="m50 35h-12a10 10 0 0 1 -10-10v-6a16 16 0 0 1 16-16 16 16 0 0 1 16 16v6a10 10 0 0 1 -10 10z" fill="#57b7eb"/><path d="m60 24.84v.16a10 10 0 0 1 -10 10h-12a10 10 0 0 1 -10-10v-6a16.006 16.006 0 0 1 13.62-15.83 7.835 7.835 0 0 0 3.66 4.51c4.68 2.63 12.72 8.06 12.72 14.32v.01a2.977 2.977 0 0 0 2 2.83z" fill="#4891d3"/><path d="m50 39-6 5-6-5v-7h12z" fill="#fcbc04"/><path d="m50 32v3.01a10.034 10.034 0 0 1 -7.99 3.99 9.856 9.856 0 0 0 5.61 1.99l-3.62 3.01-6-5v-7z" fill="#e59730"/><path d="m44 37a10 10 0 0 1 -10-10v-10h.344a13.65 13.65 0 0 0 9.656-4 13.657 13.657 0 0 0 9.656 4h.344v10a10 10 0 0 1 -10 10z" fill="#f9e109"/><path d="m54 17v3h-.34a13.659 13.659 0 0 1 -9.66-4 13.6 13.6 0 0 1 -6 3.5v5.5a10 10 0 0 0 10 10 9.819 9.819 0 0 0 2.38-.29 10.009 10.009 0 0 1 -16.38-7.71v-10h.34a13.653 13.653 0 0 0 9.66-4 13.67 13.67 0 0 0 4.43 2.96 13.632 13.632 0 0 0 5.23 1.04z" fill="#fcbc04"/><path d="m51 13-2.118-.6a17.764 17.764 0 0 0 -9.764 0l-2.118.6v-4a17.768 17.768 0 0 1 14 0z" fill="#f89c8d"/><path d="m51 11.44v1.56l-2.12-.61a17.788 17.788 0 0 0 -9.76 0l-2.12.61v-4a17.759 17.759 0 0 1 7-1.44c.38 0 .77.01 1.15.04a.913.913 0 0 0 .13.08 46.981 46.981 0 0 1 5.72 3.76z" fill="#f8664f"/><path d="m50.356 43.3-3.356 4.7-3-4 6-5a3.339 3.339 0 0 1 .356 4.3z" fill="#f89c8d"/><path d="m37.644 43.3 3.356 4.7 3-4-6-5a3.339 3.339 0 0 0 -.356 4.3z" fill="#f89c8d"/><path d="m51 11v2l-2.12-.61a17.788 17.788 0 0 0 -9.76 0l-2.12.61v-4a17.324 17.324 0 0 1 4.25-1.22 3.037 3.037 0 0 0 2.79 1.8 17.685 17.685 0 0 1 6.96 1.42z" fill="#f8664f"/><path d="m51 11.44v1.56l-2.12-.61a17.788 17.788 0 0 0 -9.76 0l-2.12.61v-4a17.324 17.324 0 0 1 4.25-1.22 3.037 3.037 0 0 0 2.79 1.8 17.462 17.462 0 0 1 5.76.97c.4.28.8.57 1.2.89z" fill="#cc5144"/><circle cx="49" cy="22" fill="#57b7eb" r="1"/><circle cx="46" cy="52" fill="#f89c8d" r="1"/><circle cx="46" cy="57" fill="#f89c8d" r="1"/><circle cx="39" cy="22" fill="#57b7eb" r="1"/><path d="m50 32a1 1 0 0 1 0-2 6.006 6.006 0 0 0 6-6 1 1 0 0 1 2 0 8.009 8.009 0 0 1 -8 8z" fill="#d0d8da"/><path d="m48 33h-2a2 2 0 0 1 -2-2 2 2 0 0 1 2-2h2a2 2 0 0 1 2 2 2 2 0 0 1 -2 2z" fill="#84d2f4"/></g><g><rect fill="#d0d8da" height="20" rx="4" width="26" x="3" y="35"/><path d="m17.08 55h-6.16a10.193 10.193 0 0 0 .08-1.24v-3.76a3 3 0 0 1 3.16-3 3.128 3.128 0 0 1 2.84 3.17v3.59a10.193 10.193 0 0 0 .08 1.24z" fill="#93999a"/><path d="m29 51a4 4 0 0 1 -4 4h-18a4 4 0 0 1 -4-4v-12a4 4 0 0 1 4-4v5a10.994 10.994 0 0 0 11 11z" fill="#93999a"/><path d="m19 53.757v-3.587a3.114 3.114 0 0 0 -2.839-3.17 3 3 0 0 0 -3.161 3v3.757a10.242 10.242 0 0 1 -3 7.243h12a10.242 10.242 0 0 1 -3-7.243z" fill="#e9f1f2"/><path d="m22 61h-12a10.25 10.25 0 0 0 3-7.24v-3.76a3 3 0 0 1 3-3v7a4.991 4.991 0 0 0 4.42 4.96 9.963 9.963 0 0 0 1.58 2.04z" fill="#d0d8da"/><path d="m26 35h-12a3 3 0 0 0 3 3h7a2 2 0 0 1 2 2v3a3 3 0 0 0 3 3v-8a3 3 0 0 0 -3-3z" fill="#e9f1f2"/><path d="m23 62h-14a1 1 0 0 1 0-2h14a1 1 0 0 1 0 2z" fill="#d0d8da"/><path d="m20 44h-8a1 1 0 0 1 0-2h8a1 1 0 0 1 0 2z" fill="#93999a"/></g><g><path d="m24 10h-14a4 4 0 0 0 -4 4v12a4 4 0 0 0 4 4h3l5 5v-5h6a4 4 0 0 0 4-4v-12a4 4 0 0 0 -4-4z" fill="#c4f236"/><path d="m27 26a15 15 0 0 1 -15-15v-1h-2a4 4 0 0 0 -4 4v12a4 4 0 0 0 4 4h3l5 5v-5h6a4 4 0 0 0 4-4z" fill="#a1d51c"/><rect fill="#f9e109" height="12" rx="2" width="10" x="12" y="14"/><g fill="#fcbc04"><path d="m21.71 25.04a2.03 2.03 0 0 1 -1.71.96h-6a2.006 2.006 0 0 1 -2-2v-8a1.978 1.978 0 0 1 .46-1.27 15.074 15.074 0 0 0 9.25 10.31z"/><path d="m21.71 25.04a2.03 2.03 0 0 1 -1.71.96h-6a2.006 2.006 0 0 1 -2-2v-8a1.978 1.978 0 0 1 .46-1.27 15.074 15.074 0 0 0 9.25 10.31z"/><path d="m13.231 14.154a2 2 0 0 0 -1.231 1.846v8a2 2 0 0 0 2 2h6a2 2 0 0 0 2-2h-7a1 1 0 0 1 -1-1h8v-7h-6a3 3 0 0 1 -2.769-1.846z"/></g><path d="m19.52 24h-4.52a1 1 0 0 1 -1-1h4a15.093 15.093 0 0 1 -5.54-8.28 2.041 2.041 0 0 0 -.46 1.28v8a2.006 2.006 0 0 0 2 2h6a2.03 2.03 0 0 0 1.71-.96 15.684 15.684 0 0 1 -2.19-1.04z" fill="#e59730"/><path d="m22 22h-10a2 2 0 0 1 -2-2 2 2 0 0 1 2-2h10a2 2 0 0 1 2 2 2 2 0 0 1 -2 2z" fill="#f89c8d"/><path d="m12 18a2 2 0 0 0 0 4h10a2 2 0 0 0 2-2h-10a2 2 0 0 1 -2-2z" fill="#f8664f"/><path d="m16.82 22h-4.82a2.006 2.006 0 0 1 -2-2 2.015 2.015 0 0 1 2-2h1.73a14.734 14.734 0 0 0 3.09 4z" fill="#f8664f"/><path d="m16.82 22h-4.82a2 2 0 0 1 0-4 2.006 2.006 0 0 0 2 2h1a14.411 14.411 0 0 0 1.82 2z" fill="#cc5144"/><path d="m18 18v1a1 1 0 0 1 -2 0v-1z" fill="#f8664f"/><path d="m21 18v1a1 1 0 0 1 -2 0v-1z" fill="#f8664f"/><path d="m15 18v1a1 1 0 0 1 -2 0v-1z" fill="#f8664f"/><path d="m14.75 19.65a.992.992 0 0 1 -.75.35 1 1 0 0 1 -1-1v-1h.73a16.235 16.235 0 0 0 1.02 1.65z" fill="#cc5144"/></g><path d="m50 31a2.015 2.015 0 0 1 -2 2h-2a2.006 2.006 0 0 1 -2-2 2.03 2.03 0 0 1 1.02-1.74 2.005 2.005 0 0 0 1.98 1.74h2a1.914 1.914 0 0 0 .98-.26 2.112 2.112 0 0 1 .02.26z" fill="#57b7eb"/></g></g></g></svg>