<svg height="512" viewBox="0 0 64 64" width="512" xmlns="http://www.w3.org/2000/svg"><g id="Flat"><g id="Stroke_copy_2" data-name="Stroke copy 2"><g><path d="m60 61h-9a3 3 0 0 1 0-6 1 1 0 0 0 0-2h-9a1 1 0 0 1 0-2h9a3 3 0 0 1 0 6 1 1 0 0 0 0 2h9a1 1 0 0 1 0 2z" fill="#d0d8da"/><g fill="#f9e109"><path d="m17.256 16.877a1 1 0 0 1 -.867-.5 1 1 0 0 0 -1.367-.366 1 1 0 0 1 -1-1.733 3 3 0 0 1 4.1 1.1 1 1 0 0 1 -.865 1.5z"/><path d="m20.72 14.877a1 1 0 0 1 -.867-.5 5 5 0 0 0 -6.83-1.83 1 1 0 0 1 -1-1.732 7 7 0 0 1 9.562 2.562 1 1 0 0 1 -.865 1.5z"/><path d="m24.184 12.877a1 1 0 0 1 -.867-.5 9.01 9.01 0 0 0 -12.294-3.295 1 1 0 0 1 -1-1.732 11.012 11.012 0 0 1 15.026 4.027 1 1 0 0 1 -.865 1.5z"/></g><path d="m32 49.414a2.427 2.427 0 0 1 -2.764 2.4 20.015 20.015 0 0 1 -17.047-17.05 2.427 2.427 0 0 1 2.397-2.764 2.414 2.414 0 0 0 2.414-2.414v-7.172a2.414 2.414 0 0 0 -2.414-2.414h-3.586a8 8 0 0 0 -8 8v4a29 29 0 0 0 29 29h4a8 8 0 0 0 8-8v-3.586a2.414 2.414 0 0 0 -2.414-2.414h-7.172a2.414 2.414 0 0 0 -2.414 2.414z" fill="#e9f1f2"/><path d="m44 49.41v3.59a8 8 0 0 1 -8 8h-4a29 29 0 0 1 -29-29v-4a8 8 0 0 1 8-8h3.59a2.411 2.411 0 0 1 2.41 2.41v6.59h-.42a7.991 7.991 0 0 0 -7.44 10.96 29.105 29.105 0 0 0 15.9 15.9 7.991 7.991 0 0 0 10.96-7.44v-1.42h5.59a2.411 2.411 0 0 1 2.41 2.41z" fill="#d0d8da"/><path d="m61 20a17 17 0 1 0 -21.7 16.327l-2.3 7.673 7.741-7.037a16.987 16.987 0 0 0 16.259-16.963z" fill="#84d2f4"/><path d="m60.67 23.32a16.978 16.978 0 0 1 -15.93 13.64l-7.74 7.04 2.3-7.67a16.991 16.991 0 0 1 -7.98-27.65 17.226 17.226 0 0 0 -.32 3.32 16.991 16.991 0 0 0 29.67 11.32z" fill="#57b7eb"/><g><g fill="#f9e109"><path d="m40.345 19.082a1 1 0 0 1 -.815-.419l-4.344-6.082a1 1 0 1 1 1.627-1.162l4.344 6.081a1 1 0 0 1 -.812 1.581z"/><path d="m38.416 20.515a1 1 0 0 1 -.64-.232l-5.416-4.514a1 1 0 0 1 1.281-1.538l5.417 4.515a1 1 0 0 1 -.642 1.769z"/><path d="m43 13a1 1 0 0 1 -.707-.293 2.414 2.414 0 0 1 0-3.414.415.415 0 0 0 0-.586 1 1 0 1 1 1.414-1.414 2.414 2.414 0 0 1 0 3.414.415.415 0 0 0 0 .586 1 1 0 0 1 -.707 1.707z"/><path d="m48 14a1 1 0 0 1 -.707-.293 2.414 2.414 0 0 1 0-3.414.415.415 0 0 0 0-.586 1 1 0 0 1 1.414-1.414 2.414 2.414 0 0 1 0 3.414.415.415 0 0 0 0 .586 1 1 0 0 1 -.707 1.707z"/><path d="m53 17a1 1 0 0 1 -.707-.293 2.414 2.414 0 0 1 0-3.414.415.415 0 0 0 0-.586 1 1 0 0 1 1.414-1.414 2.414 2.414 0 0 1 0 3.414.415.415 0 0 0 0 .586 1 1 0 0 1 -.707 1.707z"/></g><path d="m51 19c-.061 0-.118.014-.178.018a2.976 2.976 0 0 0 -4.843-1.218 1.993 1.993 0 0 0 -3.825-.565 2.987 2.987 0 0 0 -4.039 1.989 3 3 0 1 0 1.769 3.56 2.857 2.857 0 0 0 1.819.128 2.975 2.975 0 0 0 4.827-.312 2.97 2.97 0 0 0 1.47.4c.061 0 .118-.014.178-.018a2.995 2.995 0 1 0 2.822-3.982z" fill="#e9f1f2"/><path d="m54 22a2.991 2.991 0 0 1 -5.82.98 1.1 1.1 0 0 1 -.18.02 2.942 2.942 0 0 1 -1.47-.4 2.979 2.979 0 0 1 -4.83.31 3.193 3.193 0 0 1 -.7.09 2.981 2.981 0 0 1 -1.12-.22 2.992 2.992 0 1 1 -1.76-3.56 2.9 2.9 0 0 1 1-1.55 2.005 2.005 0 0 0 1.88 1.33 1.956 1.956 0 0 0 .68-.13 2.954 2.954 0 0 0 2.32 1.13 2.9 2.9 0 0 0 1.66-.53 1.959 1.959 0 0 0 2.68 0 2.9 2.9 0 0 0 1.66.53 2.968 2.968 0 0 0 2.04-.81 2.985 2.985 0 0 1 1.96 2.81z" fill="#d0d8da"/><path d="m45 32h-2a10 10 0 0 1 -10-10h22a10 10 0 0 1 -10 10z" fill="#f9e109"/><path d="m54.71 24.37a9.992 9.992 0 0 1 -9.71 7.63h-2a10 10 0 0 1 -10-10h2.84a9.991 9.991 0 0 0 9.16 6h2a9.969 9.969 0 0 0 7.07-2.93c.22-.22.44-.46.64-.7z" fill="#fcbc04"/><path d="m52.73 28.33a7.745 7.745 0 0 1 -.66.74 9.969 9.969 0 0 1 -7.07 2.93h-2a10 10 0 0 1 -10-10h1.26a16.926 16.926 0 0 0 13.74 7 16.792 16.792 0 0 0 4.73-.67z" fill="#e59730"/><circle cx="39" cy="26" fill="#f8664f" r="1"/><circle cx="43" cy="26" fill="#f8664f" r="1"/><circle cx="47" cy="26" fill="#f8664f" r="1"/><circle cx="51" cy="26" fill="#f8664f" r="1"/><path d="m39.83 26.55a.98.98 0 0 1 -.83.45 1 1 0 0 1 -.76-1.65 9.214 9.214 0 0 0 1.59 1.2z" fill="#fcbc04"/><path d="m39.83 26.55a.98.98 0 0 1 -.83.45 1 1 0 0 1 -.76-1.65 9.214 9.214 0 0 0 1.59 1.2z" fill="#f8664f"/><path d="m39.83 26.55a.98.98 0 0 1 -.83.45 1 1 0 0 1 -.76-1.65 9.214 9.214 0 0 0 1.59 1.2z" fill="#cc5144"/><path d="m39.61 26.78a.93.93 0 0 1 -.61.22 1 1 0 0 1 -1-1 .852.852 0 0 1 .03-.23 13.66 13.66 0 0 0 1.58 1.01z" fill="#ad4038"/><path d="m39.61 26.78a.93.93 0 0 1 -.61.22 1 1 0 0 1 -1-1 .852.852 0 0 1 .03-.23 13.66 13.66 0 0 0 1.58 1.01z" fill="#ad4038"/></g><path d="m17 22.41v7.18a2.424 2.424 0 0 1 -2.41 2.41 2.389 2.389 0 0 0 -1.51.53 5.971 5.971 0 0 1 -2.08-4.53v-8h3.59a2.411 2.411 0 0 1 2.41 2.41z" fill="#f9e109"/><path d="m44 49.41v3.59h-8.29a6 6 0 0 1 -4.39-1.91 2.39 2.39 0 0 0 .68-1.68 2.411 2.411 0 0 1 2.41-2.41h7.18a2.411 2.411 0 0 1 2.41 2.41z" fill="#f9e109"/><g fill="#fcbc04"><path d="m44 49.41v3.59h-8.29a5.464 5.464 0 0 1 -1.07-.1 7.958 7.958 0 0 0 1.36-4.48v-1.42h5.59a2.411 2.411 0 0 1 2.41 2.41z"/><path d="m14 20h-3v8a5.9 5.9 0 0 0 .65 2.69l.021-.016a5.782 5.782 0 0 0 2.329-4.535z"/></g></g></g></g></svg>