<svg height="512" viewBox="0 0 64 64" width="512" xmlns="http://www.w3.org/2000/svg"><g id="Flat"><g id="Stroke_copy_2" data-name="Stroke copy 2"><g><g fill="#84d2f4"><path d="m53 61h-25a1 1 0 0 1 0-2h25a1 1 0 0 1 0 2z"/><path d="m60 56h-21a1 1 0 0 1 0-2h21a1 1 0 0 1 0 2z"/><path d="m54 46h-16a1 1 0 0 1 0-2h16a1 1 0 0 1 0 2z"/><path d="m51 51h-7a1 1 0 0 1 0-2h7a1 1 0 0 1 0 2z"/><path d="m60 41h-12a1 1 0 0 1 0-2h12a1 1 0 0 1 0 2z"/></g><path d="m32.439 59.06-20.732-5.555a5 5 0 0 1 -3.639-5.649l6.005-36.163 32.841 8.8z" fill="#57b7eb"/><path d="m20.58 15.7-.548 3.3a6 6 0 0 0 4.368 6.778l18.65 4.992-6.35 16.93-20.52-5.49-.11.65a4.991 4.991 0 0 0 3.64 5.64l4.47 1.2a6.069 6.069 0 0 1 2.82-.7 6 6 0 0 1 5.08 2.82l2.8.75-2.44 6.49-20.73-5.56a4.991 4.991 0 0 1 -3.64-5.64l6-36.17 32.84 8.8-.77 2.06z" fill="#4891d3"/><path d="m14.27 10.195h34a3 3 0 0 1 3 3v3a0 0 0 0 1 0 0h-40a0 0 0 0 1 0 0v-3a3 3 0 0 1 3-3z" fill="#e9f1f2" transform="matrix(.966 .259 -.259 .966 4.481 -7.644)"/><path d="m19.564 6.365h26a2 2 0 0 1 2 2v2a0 0 0 0 1 0 0h-30a0 0 0 0 1 0 0v-2a2 2 0 0 1 2-2z" fill="#e9f1f2" transform="matrix(.966 .259 -.259 .966 3.275 -8.143)"/><path d="m38.96 46.314-30.909-8.283 2.727-17.904 34.773 9.318z" fill="#84d2f4"/><path d="m29.3 38.068a5 5 0 1 1 1.83-6.83 5 5 0 0 1 -1.83 6.83z" fill="#f9e109"/><path d="m29.3 38.07a5 5 0 0 1 -6.83-1.83l.78.05a3.446 3.446 0 0 0 3.55-2.55 3.454 3.454 0 0 1 3.33-2.56 1.848 1.848 0 0 1 .23.01l.77.05a5 5 0 0 1 -1.83 6.83z" fill="#fcbc04"/><circle cx="29" cy="55" fill="#93999a" r="6"/><circle cx="29" cy="55" fill="#d0d8da" r="2"/><path d="m34.12 58.12a6 6 0 1 1 -8.24-8.24 5.91 5.91 0 0 0 -.88 3.12 6 6 0 0 0 6 6 5.91 5.91 0 0 0 3.12-.88z" fill="#656b76"/><path d="m22.489 5.932a2 2 0 0 1 -1.414-2.449 1.948 1.948 0 0 1 .092-.242l-.642-.172a2 2 0 0 0 -2.45 1.414l-.517 1.932 28.977 7.764.451-1.683z" fill="#d0d8da"/><path d="m50.58 18.4-.77 2.87-38.63-10.35.77-2.9a3.005 3.005 0 0 1 3.68-2.12l.33.09c0 .01-.01.02-.01.03a3 3 0 0 0 2.12 3.67z" fill="#d0d8da"/><path d="m41.3 40.33-2.34 5.98-30.91-8.28 2.73-17.9 6.09 1.63a20.235 20.235 0 0 0 14.67 15.96z" fill="#57b7eb"/><path d="m30.27 37.33a5.075 5.075 0 0 1 -.97.74 5 5 0 0 1 -6.83-1.83 4.948 4.948 0 0 1 -.38-4.15 20.121 20.121 0 0 0 8.18 5.24z" fill="#fcbc04"/><path d="m30.27 37.33a5.075 5.075 0 0 1 -.97.74 5 5 0 0 1 -6.83-1.83l.78.05a3.468 3.468 0 0 0 2.69-1.03 19.628 19.628 0 0 0 4.33 2.07z" fill="#e59730"/></g></g></g></svg>