<svg height="512" viewBox="0 0 64 64" width="512" xmlns="http://www.w3.org/2000/svg"><g id="Flat"><g id="Stroke_copy_2" data-name="Stroke copy 2"><g><g><rect fill="#e9f1f2" height="58" rx="4" width="38" x="3" y="3"/><path d="m41 45v12a4 4 0 0 1 -4 4h-30a4 4 0 0 1 -4-4v-50a4 4 0 0 1 4-4h6v38a4 4 0 0 0 4 4z" fill="#d0d8da"/><path d="m15 9a2 2 0 0 1 -2 2h-4a2 2 0 0 0 -2 2v42a2 2 0 0 0 2 2h26a2 2 0 0 0 2-2v-46a2 2 0 0 0 -2-2h-18a2 2 0 0 0 -2 2z" fill="#84d2f4"/><g fill="#57b7eb"><path d="m9 57h26a2 2 0 0 0 2-2v-46a2 2 0 0 0 -2-2h-18.079a1.979 1.979 0 0 0 -1.921 2.041 2 2 0 0 1 -2 1.959h-4a2 2 0 0 0 -2 2v42a2 2 0 0 0 2 2zm8-12a4 4 0 0 1 -4-4v-27h1a2 2 0 0 0 2-2 2 2 0 0 1 2-2h14a2 2 0 0 1 2 2v33z"/><circle cx="7" cy="7" r="1"/><circle cx="11" cy="7" r="1"/></g><path d="m32 16h-9a1 1 0 0 1 0-2h9a1 1 0 0 1 0 2z" fill="#f9e109"/><path d="m33 12h-5a1 1 0 0 1 0-2h5a1 1 0 0 1 0 2z" fill="#f9e109"/><path d="m33 50h-10a1 1 0 0 1 0-2h10a1 1 0 0 1 0 2z" fill="#fcbc04"/><path d="m31 54h-18a1 1 0 0 1 0-2h18a1 1 0 0 1 0 2z" fill="#fcbc04"/></g><path d="m13 15h6v34h-6z" fill="#4891d3"/><g><path d="m13 19h48v26h-48z" fill="#c4f236"/><path d="m61 37v8h-48v-26h5a24.994 24.994 0 0 0 24 18z" fill="#a1d51c"/><g><path d="m25 30a1 1 0 0 1 -1-1v-4a1 1 0 0 1 2 0v4a1 1 0 0 1 -1 1z" fill="#84d2f4"/><path d="m24 45h-4l1-14h2z" fill="#4891d3"/><path d="m24 45h-4l1-14h2l.29 4.09a3.582 3.582 0 0 1 -1.29.75v3.16a2.984 2.984 0 0 0 1.77 2.73z" fill="#2d72bc"/><path d="m26 29c0 2.761-1.791 5-4 5s-4-2.239-4-5z" fill="#84d2f4"/><path d="m25.68 30.94a4.082 4.082 0 0 1 -3.68 3.06c-2.21 0-4-2.24-4-5h5.67a24.577 24.577 0 0 0 2.01 1.94z" fill="#57b7eb"/><path d="m36 45h-4l1-14h2z" fill="#57b7eb"/><path d="m36 45h-4l1-14h2l.29 4.09a3.582 3.582 0 0 1 -1.29.75v3.16a2.984 2.984 0 0 0 1.77 2.73z" fill="#4891d3"/><ellipse cx="34" cy="29" fill="#84d2f4" rx="4" ry="5"/><path d="m37.37 31.7a3.9 3.9 0 0 1 -3.37 2.3c-2.21 0-4-2.24-4-5a5.039 5.039 0 0 1 2.63-4.69 5.894 5.894 0 0 0 -.63 2.69c0 2.76 1.79 5 4 5a3.377 3.377 0 0 0 1.37-.3z" fill="#57b7eb"/><path d="m25.37 31.7a3.9 3.9 0 0 1 -3.37 2.3c-2.21 0-4-2.24-4-5h2.34a4.076 4.076 0 0 0 3.66 3 3.377 3.377 0 0 0 1.37-.3z" fill="#4891d3"/><path d="m36 45h-4l.7-9.79a21.844 21.844 0 0 0 2.66.89z" fill="#4891d3"/><path d="m36 45h-4l.7-9.79c.5.2 1 .39 1.51.55a1.8 1.8 0 0 1 -.21.08v3.16a2.984 2.984 0 0 0 1.77 2.73z" fill="#2d72bc"/><path d="m19 30a1 1 0 0 1 -1-1v-4a1 1 0 0 1 2 0v4a1 1 0 0 1 -1 1z" fill="#4891d3"/><path d="m22 30a1 1 0 0 1 -1-1v-4a1 1 0 0 1 2 0v4a1 1 0 0 1 -1 1z" fill="#84d2f4"/><path d="m23 28.24v.76a1 1 0 0 1 -2 0v-3.43a23.81 23.81 0 0 0 2 2.67z" fill="#57b7eb"/></g><path d="m43 19h18v26h-18z" fill="#f9e109"/><path d="m43 37h18v8h-18z" fill="#fcbc04"/><g fill="#57b7eb"><path d="m44 19v5a1 1 0 0 1 -2 0v-5z"/><path d="m43 32a1 1 0 0 1 -1-1v-2a1 1 0 0 1 2 0v2a1 1 0 0 1 -1 1z"/><path d="m43 39a1 1 0 0 1 -1-1v-3a1 1 0 0 1 2 0v3a1 1 0 0 1 -1 1z"/></g><path d="m42 45v-3a1 1 0 0 1 2 0v3z" fill="#4891d3"/><path d="m49 30a3 3 0 1 1 3-3 3 3 0 0 1 -3 3zm0-4a1 1 0 1 0 1 1 1 1 0 0 0 -1-1z" fill="#f8664f"/><path d="m55 41a3 3 0 1 1 3-3 3 3 0 0 1 -3 3zm0-4a1 1 0 1 0 1 1 1 1 0 0 0 -1-1z" fill="#f8664f"/><path d="m47 38a1 1 0 0 1 -.67-1.743l10-9a1 1 0 1 1 1.338 1.486l-10 9a1 1 0 0 1 -.668.257z" fill="#f8664f"/><path d="m46 37h2.49l-.82.74a.961.961 0 0 1 -.67.26.981.981 0 0 1 -.74-.33 1.008 1.008 0 0 1 -.26-.67z" fill="#cc5144"/><path d="m58 38a3 3 0 0 1 -6 0 2.772 2.772 0 0 1 .18-1h2.82a1 1 0 1 0 1 1 1 1 0 0 0 -1-1h2.82a2.772 2.772 0 0 1 .18 1z" fill="#cc5144"/><path d="m44 37v1a1 1 0 0 1 -2 0v-1z" fill="#4891d3"/></g><path d="m56 55v-6h-8v6h-3l7 6 7-6z" fill="#f8664f"/><path d="m56 9v-6h-8v6h-3l7 6 7-6z" fill="#f8664f"/><g fill="#cc5144"><path d="m54.53 58.83-2.53 2.17-7-6h3v-6h4v4a7.938 7.938 0 0 0 2.53 5.83z"/><path d="m54.53 12.83-2.53 2.17-7-6h3v-6h4v4a7.938 7.938 0 0 0 2.53 5.83z"/></g></g></g></g></svg>