<svg height="512" viewBox="0 0 64 64" width="512" xmlns="http://www.w3.org/2000/svg"><g id="Flat"><g id="Stroke_copy_2" data-name="Stroke copy 2"><g><g><path d="m35 38h18a8 8 0 0 1 8 8v15a0 0 0 0 1 0 0h-34a0 0 0 0 1 0 0v-15a8 8 0 0 1 8-8z" fill="#f8664f"/><g fill="#cc5144"><path d="m55 55v-5a2 2 0 0 0 -2 2v3h-4a14 14 0 0 1 -14-14v-3a8 8 0 0 0 -8 8v15h34v-6z"/><path d="m50.356 44.3-3.356 4.7-3-5 6-4a3.339 3.339 0 0 1 .356 4.3z"/><path d="m37.644 44.3 3.356 4.7 3-5-6-4a3.339 3.339 0 0 0 -.356 4.3z"/></g><path d="m50 39-6 5-6-5v-7h12z" fill="#fcbc04"/><path d="m50 32v3.01a10.034 10.034 0 0 1 -7.99 3.99 9.856 9.856 0 0 0 5.61 1.99l-3.62 3.01-6-5v-7z" fill="#e59730"/><path d="m50.356 43.3-3.356 4.7-3-4 6-5a3.339 3.339 0 0 1 .356 4.3z" fill="#f89c8d"/><path d="m37.644 43.3 3.356 4.7 3-4-6-5a3.339 3.339 0 0 0 -.356 4.3z" fill="#f89c8d"/><path d="m54 19v8a10 10 0 0 1 -10 10 10 10 0 0 1 -10-10v-8z" fill="#f9e109"/><path d="m56 19h-27a2 2 0 0 1 -2-2 2 2 0 0 1 2-2h27z" fill="#f89c8d"/><path d="m40 3h8a8 8 0 0 1 8 8v4a0 0 0 0 1 0 0h-24a0 0 0 0 1 0 0v-4a8 8 0 0 1 8-8z" fill="#f8664f"/><path d="m38.59 22.59a1.955 1.955 0 0 0 -.59 1.41 10 10 0 0 0 10 10 9.85 9.85 0 0 0 3.81-.76 10 10 0 0 1 -17.81-6.24v-8h20v3h-14a1.955 1.955 0 0 0 -1.41.59z" fill="#fcbc04"/><path d="m56 17v2h-27a2.006 2.006 0 0 1 -2-2 2.015 2.015 0 0 1 2-2 2.006 2.006 0 0 0 2 2z" fill="#f8664f"/><path d="m56 12v3h-24v-4a8 8 0 0 1 5.49-7.6 12 12 0 0 0 11.51 8.6z" fill="#cc5144"/><path d="m40 7h8v4h-8z" fill="#f9e109"/><path d="m44.21 11h-4.21v-3.08a11.633 11.633 0 0 0 4.21 3.08z" fill="#fcbc04"/><g><circle cx="49" cy="23" fill="#4891d3" r="1"/><circle cx="46" cy="52" fill="#f89c8d" r="1"/><circle cx="46" cy="57" fill="#f89c8d" r="1"/><circle cx="39" cy="23" fill="#4891d3" r="1"/><path d="m44 32.324a7.658 7.658 0 0 1 -4.6-1.524 1 1 0 1 1 1.2-1.6 5.7 5.7 0 0 0 6.8 0 1 1 0 1 1 1.2 1.6 7.658 7.658 0 0 1 -4.6 1.524z" fill="#f8664f"/></g></g><g><path d="m23 53h-10a4 4 0 0 1 -4-4h10a4 4 0 0 1 4 4z" fill="#fcbc04"/><path d="m23 53h-6l3 8h7z" fill="#cc5144"/></g><g><path d="m7 23h18a4 4 0 0 1 4 4v18a4 4 0 0 1 -4 4h-17a5 5 0 0 1 -5-5v-17a4 4 0 0 1 4-4z" fill="#a1d51c"/><path d="m29 42v3a4 4 0 0 1 -4 4h-17a5 5 0 0 1 -5-5v-17a4 4 0 0 1 4-4h4v3a16 16 0 0 0 16 16z" fill="#7ab92d"/><g><path d="m11 32a9 9 0 0 0 9 9l5-13z" fill="#f7f754"/><path d="m25 28-5 13a9 9 0 0 1 -9-9l.88-.25a5.375 5.375 0 0 0 1.67 1.83 2.464 2.464 0 0 0 .34.22 5.077 5.077 0 0 0 .81.4c.01 0 .01 0 .02.01a6 6 0 0 0 5.38-.52c.13-.08.24-.16.36-.25a5.087 5.087 0 0 0 .65-.58 6.01 6.01 0 0 0 1.24-1.98l.92-2.39z" fill="#f9e109"/><path d="m11 32a9 9 0 0 0 9 9v1.813a2 2 0 0 1 -2.337 1.978 13.016 13.016 0 0 1 -10.454-10.454 2 2 0 0 1 1.973-2.337z" fill="#e59730"/><path d="m25 28-1.52 3.95a2.968 2.968 0 0 1 -2.47-2.81z" fill="#f89c8d"/><path d="m21.4 37.35-1.4 3.65a9.059 9.059 0 0 1 -2.96-.5 2.737 2.737 0 0 1 -.04-.5 3 3 0 0 1 4.4-2.65z" fill="#f8664f"/><path d="m18 32a2 2 0 0 1 -4 0 1.9 1.9 0 0 1 .23-.92l2.79-.8a2 2 0 0 1 .98 1.72z" fill="#f89c8d"/><path d="m20.2 40.48-.2.52a9 9 0 0 1 -9-9l1.05-.3a15.986 15.986 0 0 0 8.15 8.78z" fill="#fcbc04"/><path d="m20.2 40.48-.2.52a9.059 9.059 0 0 1 -2.96-.5 2.737 2.737 0 0 1 -.04-.5 2.9 2.9 0 0 1 .29-1.28 15.337 15.337 0 0 0 2.91 1.76z" fill="#cc5144"/><path d="m25 28-1.52 3.95a2.908 2.908 0 0 1 -1.34-.59 3.478 3.478 0 0 0 .21-.48l.92-2.39z" fill="#f8664f"/></g></g></g></g></g></svg>