<svg height="512" viewBox="0 0 64 64" width="512" xmlns="http://www.w3.org/2000/svg"><g id="Flat"><g id="Stroke_copy_2" data-name="Stroke copy 2"><g><rect fill="#e9f1f2" height="38" rx="4" width="58" x="3" y="20"/><path d="m61 47v7a4 4 0 0 1 -4 4h-50a4 4 0 0 1 -4-4v-30a4 4 0 0 1 4-4h7v23a4 4 0 0 0 4 4z" fill="#d0d8da"/><path d="m7 24h46v30h-46z" fill="#84d2f4"/><path d="m7 24v30h46v-30zm43 23h-18a18 18 0 0 1 -18-18v-2h32a4 4 0 0 1 4 4z" fill="#57b7eb"/><g><path d="m34.989 16h-9.978a5 5 0 0 0 -4.881 3.915l-3.13 14.085h26l-3.13-14.085a5 5 0 0 0 -4.881-3.915z" fill="#f7f754"/><path d="m43 34h-26l3.13-14.08a5 5 0 0 1 4.88-3.92h9.98a3.389 3.389 0 0 1 .45.02 5.016 5.016 0 0 1 4.43 3.9l.81 3.64a1.275 1.275 0 0 1 -.48.08 1.736 1.736 0 0 1 -.75-.17 1.779 1.779 0 0 0 -1.87.27l-.62.49a1.7 1.7 0 0 1 -1.99.09l-1.03-.7a1.731 1.731 0 0 0 -1.88 0l-1.12.76a1.731 1.731 0 0 1 -1.88 0l-1.12-.76a1.731 1.731 0 0 0 -1.88 0l-1.03.7a1.711 1.711 0 0 1 -1.58.15l-.1.45a5 5 0 0 0 4.88 6.08h14.1z" fill="#f9e109"/><path d="m41.822 19.481a7 7 0 0 0 -6.833-5.481h-9.978a7 7 0 0 0 -6.833 5.481l-.023.1a1.687 1.687 0 0 0 2.385 1.883 1.685 1.685 0 0 1 1.792.2l.7.562a1.687 1.687 0 0 0 1.989.087l1.038-.692a1.687 1.687 0 0 1 1.872 0l1.128.752a1.687 1.687 0 0 0 1.872 0l1.128-.752a1.687 1.687 0 0 1 1.872 0l1.038.692a1.687 1.687 0 0 0 1.989-.087l.7-.562a1.685 1.685 0 0 1 1.792-.2 1.687 1.687 0 0 0 2.385-1.883z" fill="#f89c8d"/><circle cx="30" cy="11" fill="#f8664f" r="3"/><path d="m40.2 21.64a1.7 1.7 0 0 1 -.74-.17 1.667 1.667 0 0 0 -1.79.2l-.71.56a1.7 1.7 0 0 1 -1.99.09l-1.03-.7a1.731 1.731 0 0 0 -1.88 0l-1.12.76a1.731 1.731 0 0 1 -1.88 0l-1.12-.76a1.731 1.731 0 0 0 -1.88 0l-1.03.7a1.7 1.7 0 0 1 -1.99-.09l-.71-.56a1.663 1.663 0 0 0 -1.05-.37 1.634 1.634 0 0 0 -.74.17 1.691 1.691 0 0 1 -2.39-1.88l.03-.11a6.97 6.97 0 0 1 4.04-4.89 5.993 5.993 0 0 0 5.78 4.41h13.69c.05.16.09.32.13.48l.03.11a1.7 1.7 0 0 1 -1.65 2.05z" fill="#f8664f"/><path d="m30.82 14a2.988 2.988 0 0 1 -5.64 0z" fill="#f8664f"/><path d="m32.98 11.24a2.995 2.995 0 0 1 -5.98-.24 2.929 2.929 0 0 1 1.02-2.24.974.974 0 0 0 -.02.24 2.989 2.989 0 0 0 4.98 2.24z" fill="#cc5144"/><path d="m23.858 34.99a1 1 0 0 0 1.132-.848l1-7a1 1 0 0 0 -1.98-.284l-1 7a1 1 0 0 0 .848 1.132z" fill="#fcbc04"/><path d="m34.858 26.01a1 1 0 0 0 -.848 1.132l1 7a1 1 0 1 0 1.98-.284l-1-7a1 1 0 0 0 -1.132-.848z" fill="#fcbc04"/><g fill="#f9e109"><path d="m44 8a1 1 0 0 0 0-2h-1v-1a1 1 0 0 0 -2 0v1h-1a1 1 0 0 0 0 2h1v1a1 1 0 0 0 2 0v-1z"/><path d="m15 11h1v1a1 1 0 0 0 2 0v-1h1a1 1 0 0 0 0-2h-1v-1a1 1 0 0 0 -2 0v1h-1a1 1 0 0 0 0 2z"/><path d="m49 12h-1v-1a1 1 0 0 0 -2 0v1h-1a1 1 0 0 0 0 2h1v1a1 1 0 0 0 2 0v-1h1a1 1 0 0 0 0-2z"/></g><path d="m33 5a4 4 0 0 0 -4 4 1 1 0 0 0 2 0 2 2 0 0 1 2-2 1 1 0 0 0 0-2z" fill="#f89c8d"/><path d="m15 34h30a0 0 0 0 1 0 0v1a3 3 0 0 1 -3 3h-24a3 3 0 0 1 -3-3v-1a0 0 0 0 1 0 0z" fill="#e9f1f2"/><path d="m21 38h18v4h-18z" fill="#d0d8da"/><path d="m44.87 35.87a2.982 2.982 0 0 1 -2.87 2.13h-24a3 3 0 0 1 -3-3v-1h2.18a2.968 2.968 0 0 0 2.82 2h24a3.1 3.1 0 0 0 .87-.13z" fill="#d0d8da"/><path d="m39 38v2h-14a2.006 2.006 0 0 0 -2 2h-2v-4z" fill="#93999a"/></g><circle cx="40" cy="44" fill="#f89c8d" r="6"/><path d="m45.47 46.47a6 6 0 1 1 -7.94-7.94 6 6 0 0 0 7.94 7.94z" fill="#f8664f"/><path d="m57 32a1 1 0 0 0 -1 1v10a1 1 0 0 0 2 0v-10a1 1 0 0 0 -1-1z" fill="#57b7eb"/><path d="m42 43h-1v-1a1 1 0 0 0 -2 0v1h-1a1 1 0 0 0 0 2h1v1a1 1 0 0 0 2 0v-1h1a1 1 0 0 0 0-2z" fill="#57b7eb"/><g fill="#f9e109"><path d="m31 45h-19a1 1 0 0 0 0 2h19a1 1 0 0 0 0-2z"/><path d="m29 49h-11a1 1 0 0 0 0 2h11a1 1 0 0 0 0-2z"/></g></g></g></g></svg>