<svg height="512" viewBox="0 0 64 64" width="512" xmlns="http://www.w3.org/2000/svg"><g id="Flat"><g id="Stroke_copy_2" data-name="Stroke copy 2"><g><g><path d="m59 47h-54a2 2 0 0 1 -2-2 2 2 0 0 1 2-2h54a2 2 0 0 1 2 2 2 2 0 0 1 -2 2z" fill="#f9e109"/><g fill="#fcbc04"><path d="m21.663 61h-9.327a5 5 0 0 1 -4.949-4.293l-1.387-9.707h22l-1.387 9.707a5 5 0 0 1 -4.95 4.293z"/><path d="m51.663 61h-9.327a5 5 0 0 1 -4.949-4.293l-1.387-9.707h22l-1.387 9.707a5 5 0 0 1 -4.95 4.293z"/><path d="m61 45a2.015 2.015 0 0 1 -2 2h-54a2.006 2.006 0 0 1 -2-2 2.015 2.015 0 0 1 2-2 2.006 2.006 0 0 0 2 2z"/></g><path d="m57.57 50h-17.57a8.144 8.144 0 0 0 8.07 7h8.49a5 5 0 0 1 -4.9 4h-9.32a5 5 0 0 1 -4.95-4.29l-1.39-9.71h22z" fill="#e59730"/><path d="m27.57 50h-17.57a8.144 8.144 0 0 0 8.07 7h8.49a5 5 0 0 1 -4.9 4h-9.32a5 5 0 0 1 -4.95-4.29l-1.39-9.71h22z" fill="#e59730"/></g><g><path d="m26 43h-18l-2-13h22z" fill="#f89c8d"/><path d="m27.69 32h-17.92a9.438 9.438 0 0 0 9.32 8h7.37l-.46 3h-18l-2-13h22z" fill="#f8664f"/><path d="m17 15a11 11 0 0 0 -11 11h22a11 11 0 0 0 -11-11z" fill="#84d2f4"/><path d="m28 26h-22a10.965 10.965 0 0 1 5.06-9.26c2.14 3.67 7.35 6.26 13.44 6.26a21.142 21.142 0 0 0 3.02-.22 11.052 11.052 0 0 1 .48 3.22z" fill="#57b7eb"/><path d="m12 10.7v15.3h4v-15l8-5-2-3-8.544 5.126a3 3 0 0 0 -1.456 2.574z" fill="#f9e109"/><path d="m24 6-8 5v15h-4v-15.3a2.982 2.982 0 0 1 1.41-2.54 2.986 2.986 0 0 0 3.35.23l6.36-3.71z" fill="#fcbc04"/><path d="m16 21.1v4.9h-4v-7.94a12.491 12.491 0 0 0 4 3.04z" fill="#e59730"/><path d="m4 26h26v4h-26z" fill="#84d2f4"/><path d="m28 26h-22a10.983 10.983 0 0 1 1.51-5.57 3.794 3.794 0 0 1 .99.57 3.991 3.991 0 0 0 5 0 3.991 3.991 0 0 1 5 0 3.991 3.991 0 0 0 5 0 4.034 4.034 0 0 1 2.5-.88c.1 0 .2 0 .3.01a10.9 10.9 0 0 1 1.7 5.87z" fill="#f89c8d"/><path d="m27.51 33.17-.86 5.57-.65.44a5.412 5.412 0 0 1 -6 0 5.412 5.412 0 0 0 -6 0 5.4 5.4 0 0 1 -6 0l-.65-.44-.86-5.57 1.51 1.01a5.412 5.412 0 0 0 6 0 5.4 5.4 0 0 1 6 0 5.4 5.4 0 0 0 6 0z" fill="#84d2f4"/><path d="m30 28v2h-26v-4h2a2.006 2.006 0 0 0 2 2z" fill="#57b7eb"/><path d="m28 26h-22a10.983 10.983 0 0 1 1.51-5.57 3.794 3.794 0 0 1 .99.57 3.991 3.991 0 0 0 5 0 4.1 4.1 0 0 1 1.17-.65 18.5 18.5 0 0 0 9.83 2.65 21.142 21.142 0 0 0 3.02-.22 11.052 11.052 0 0 1 .48 3.22z" fill="#f8664f"/><g fill="#57b7eb"><path d="m14.59 38.84c-.2.1-.4.22-.59.34a5.4 5.4 0 0 1 -6 0l-.65-.44-.86-5.57 1.51 1.01a5.508 5.508 0 0 0 2.82.91 9.322 9.322 0 0 0 3.77 3.75z"/><path d="m23.95 40a5.059 5.059 0 0 1 -1.9 0z"/></g></g><g><path d="m56 43h-18l-2-13h22z" fill="#c4f236"/><path d="m57.69 32h-17.92a9.438 9.438 0 0 0 9.32 8h7.37l-.46 3h-18l-2-13h22z" fill="#a1d51c"/><path d="m47 15a11 11 0 0 0 -11 11h22a11 11 0 0 0 -11-11z" fill="#84d2f4"/><path d="m58 26h-22a10.965 10.965 0 0 1 5.06-9.26c2.14 3.67 7.35 6.26 13.44 6.26a21.142 21.142 0 0 0 3.02-.22 11.052 11.052 0 0 1 .48 3.22z" fill="#57b7eb"/><path d="m48 10.7v15.3h4v-15l8-5-2-3-8.544 5.126a3 3 0 0 0 -1.456 2.574z" fill="#f9e109"/><path d="m60 6-8 5v15h-4v-15.3a2.982 2.982 0 0 1 1.41-2.54 2.986 2.986 0 0 0 3.35.23l6.36-3.71z" fill="#fcbc04"/><path d="m34 26h26v4h-26z" fill="#84d2f4"/><path d="m58 26h-22a10.983 10.983 0 0 1 1.51-5.57 3.794 3.794 0 0 1 .99.57 3.991 3.991 0 0 0 5 0 3.991 3.991 0 0 1 5 0 3.991 3.991 0 0 0 5 0 4.034 4.034 0 0 1 2.5-.88c.1 0 .2 0 .3.01a10.9 10.9 0 0 1 1.7 5.87z" fill="#c4f236"/><path d="m60 28v2h-26v-4h2a2.006 2.006 0 0 0 2 2z" fill="#57b7eb"/><path d="m58 26h-22a10.983 10.983 0 0 1 1.51-5.57 3.794 3.794 0 0 1 .99.57 3.991 3.991 0 0 0 5 0 4.1 4.1 0 0 1 1.17-.65 18.5 18.5 0 0 0 9.83 2.65 21.142 21.142 0 0 0 3.02-.22 11.052 11.052 0 0 1 .48 3.22z" fill="#a1d51c"/><g><g fill="#f89c8d"><circle cx="45" cy="37" r="1"/><circle cx="49" cy="39" r="1"/><circle cx="53" cy="36" r="1"/><circle cx="49" cy="34" r="1"/></g><circle cx="41" cy="39" fill="#f8664f" r="1"/><circle cx="41" cy="34" fill="#f89c8d" r="1"/></g></g><g fill="#f8664f"><path d="m40.75 34.97a1.008 1.008 0 0 1 -.75-.97.994.994 0 0 1 .13-.49 9.018 9.018 0 0 0 .62 1.46z"/><path d="m40.75 34.97a1.008 1.008 0 0 1 -.75-.97.994.994 0 0 1 .13-.49 9.018 9.018 0 0 0 .62 1.46z"/></g></g></g></g></svg>