<svg height="512" viewBox="0 0 64 64" width="512" xmlns="http://www.w3.org/2000/svg"><g id="Flat"><g id="Stroke_copy_2" data-name="Stroke copy 2"><g><g fill="#57b7eb"><path d="m51 42h-2v-5a12.885 12.885 0 0 0 -4.032-9.4l-.724-.69 1.382-1.447.723.691a14.86 14.86 0 0 1 4.651 10.846z"/><path d="m15 42h-2v-5a14.86 14.86 0 0 1 4.651-10.842l.723-.691 1.382 1.447-.724.69a12.885 12.885 0 0 0 -4.032 9.396z"/><path d="m37 36a1 1 0 0 1 -1-1v-4a1 1 0 0 1 2 0v4a1 1 0 0 1 -1 1z"/><path d="m27 36a1 1 0 0 1 -1-1v-4a1 1 0 0 1 2 0v4a1 1 0 0 1 -1 1z"/></g><rect fill="#84d2f4" height="20" rx="2" width="20" x="22" y="39"/><path d="m42 54v3a2.006 2.006 0 0 1 -2 2h-16a2.006 2.006 0 0 1 -2-2v-16a2.006 2.006 0 0 1 2-2h4v3a12 12 0 0 0 12 12z" fill="#57b7eb"/><path d="m58 20h-8.095a10.787 10.787 0 0 1 -6.905-2.5 10.787 10.787 0 0 0 -6.9-2.5h-8.19a10.787 10.787 0 0 0 -6.91 2.5 10.787 10.787 0 0 1 -6.9 2.5h-8.1a3 3 0 0 0 -3 3 3 3 0 0 0 3 3h8.1a10.787 10.787 0 0 1 6.9 2.5 10.787 10.787 0 0 0 6.905 2.5h8.195a10.787 10.787 0 0 0 6.9-2.5 10.787 10.787 0 0 1 6.905-2.5h8.095a3 3 0 0 0 3-3 3 3 0 0 0 -3-3z" fill="#e9f1f2"/><path d="m54 20h-4v-9a2 2 0 0 1 2-2 2 2 0 0 1 2 2z" fill="#d0d8da"/><path d="m61 23a3 3 0 0 1 -3 3h-8.09a10.873 10.873 0 0 0 -3.68.64 10.66 10.66 0 0 0 -3.23 1.86 10.763 10.763 0 0 1 -6.91 2.5h-8.18a10.873 10.873 0 0 1 -3.68-.64 10.66 10.66 0 0 1 -3.23-1.86 10.763 10.763 0 0 0 -6.91-2.5h-8.09a3 3 0 0 1 0-6h8.09a10.873 10.873 0 0 0 3.68-.64 10.66 10.66 0 0 0 3.23-1.86v2.13a8.369 8.369 0 0 0 8.37 8.37h6.72a10.763 10.763 0 0 0 6.91-2.5 10.66 10.66 0 0 1 3.23-1.86 10.873 10.873 0 0 1 3.68-.64h8.09a3 3 0 0 0 2.6-1.5 3.026 3.026 0 0 1 .4 1.5z" fill="#d0d8da"/><path d="m25 35h4v4h-4z" fill="#d0d8da"/><path d="m35 35h4v4h-4z" fill="#d0d8da"/><circle cx="32" cy="23" fill="#57b7eb" r="3"/><path d="m34 24a3.1 3.1 0 0 1 -.13.87 3.1 3.1 0 0 1 -.87.13 3 3 0 0 1 -3-3 3.1 3.1 0 0 1 .13-.87 3.1 3.1 0 0 1 .87-.13 3 3 0 0 1 3 3z" fill="#57b7eb"/><g><path d="m33.638 48a1 1 0 0 1 -.964-.738l-.824-3.022-1.975-.248a1 1 0 0 1 -.867-1.116.988.988 0 0 1 1.117-.868l2.639.331a1 1 0 0 1 .839.729l1 3.669a1 1 0 0 1 -.965 1.263z" fill="#f9e109"/><path d="m36.5 56h-5a1 1 0 0 1 0-2h5a1 1 0 0 1 0 2z" fill="#cc5144"/><path d="m36 55h-4l-1-8h6z" fill="#f89c8d"/><path d="m36.29 52.67-.29 2.33h-4l-1-8h2.25l.25 2.03a4.551 4.551 0 0 0 2.79 3.64z" fill="#f8664f"/><path d="m36.2 53.38-.2 1.62h-4l-.57-4.6a11.845 11.845 0 0 0 4.77 2.98z" fill="#cc5144"/><path d="m31 56h-3a2 2 0 0 1 -2-2 2 2 0 0 1 2-2h3a2 2 0 0 1 2 2 2 2 0 0 1 -2 2z" fill="#f9e109"/><path d="m33 54a2.015 2.015 0 0 1 -2 2h-3a2.006 2.006 0 0 1 -2-2 2.03 2.03 0 0 1 1.02-1.74 2.005 2.005 0 0 0 1.98 1.74h3a1.914 1.914 0 0 0 .98-.26 2.112 2.112 0 0 1 .02.26z" fill="#fcbc04"/></g><path d="m51 45h-2a2 2 0 0 1 -2-2 2 2 0 0 1 2-2h2a2 2 0 0 1 2 2 2 2 0 0 1 -2 2z" fill="#e9f1f2"/><path d="m15 45h-2a2 2 0 0 1 -2-2 2 2 0 0 1 2-2h2a2 2 0 0 1 2 2 2 2 0 0 1 -2 2z" fill="#e9f1f2"/><path d="m52 20h4v6h-4z" fill="#84d2f4"/><path d="m8 20h4v6h-4z" fill="#57b7eb"/><path d="m32 20a3 3 0 1 0 3 3 3 3 0 0 0 -3-3zm1.87 4.87a3.1 3.1 0 0 1 -.87.13 3 3 0 0 1 -3-3 3.1 3.1 0 0 1 .13-.87 3.1 3.1 0 0 1 .87-.13 3 3 0 0 1 3 3 3.1 3.1 0 0 1 -.13.87z" fill="#4891d3"/><circle cx="33" cy="22" fill="#84d2f4" r="1"/><path d="m34 22a1.014 1.014 0 0 1 -.29.71 3.055 3.055 0 0 0 -1.42-1.42 1.014 1.014 0 0 1 .71-.29 1 1 0 0 1 1 1z" fill="#57b7eb"/><path d="m52 23h4v3h-4z" fill="#57b7eb"/><path d="m52 12.45v1.55a3.98 3.98 0 0 0 2 3.46v2.54h-4v-9a2.006 2.006 0 0 1 2-2 2.015 2.015 0 0 1 2 2v2a4 4 0 0 1 -2-.55z" fill="#93999a"/><path d="m52 9h-5a4 4 0 0 1 -4-4h5a4 4 0 0 1 4 4z" fill="#84d2f4"/><path d="m52 9h5a4 4 0 0 1 4 4h-5a4 4 0 0 1 -4-4z" fill="#84d2f4"/><path d="m61 13h-5a4 4 0 0 1 -4-4h1.54a3.98 3.98 0 0 0 3.46 2h3.46a3.989 3.989 0 0 1 .54 2z" fill="#57b7eb"/><path d="m52 9h-5a4 4 0 0 1 -4-4h1.54a3.98 3.98 0 0 0 3.46 2h3.46a3.989 3.989 0 0 1 .54 2z" fill="#57b7eb"/><path d="m14 20h-4v-9a2 2 0 0 1 2-2 2 2 0 0 1 2 2z" fill="#d0d8da"/><path d="m12 12.45v1.55a3.98 3.98 0 0 0 2 3.46v2.54h-4v-9a2.006 2.006 0 0 1 2-2 2.015 2.015 0 0 1 2 2v2a4 4 0 0 1 -2-.55z" fill="#93999a"/><path d="m12 9h-5a4 4 0 0 1 -4-4h5a4 4 0 0 1 4 4z" fill="#84d2f4"/><path d="m12 9h5a4 4 0 0 1 4 4h-5a4 4 0 0 1 -4-4z" fill="#84d2f4"/><path d="m21 13h-5a4 4 0 0 1 -4-4h1.54a3.98 3.98 0 0 0 3.46 2h3.46a3.989 3.989 0 0 1 .54 2z" fill="#57b7eb"/><path d="m12 9h-5a4 4 0 0 1 -4-4h1.54a3.98 3.98 0 0 0 3.46 2h3.46a3.989 3.989 0 0 1 .54 2z" fill="#57b7eb"/><path d="m53 43a2.015 2.015 0 0 1 -2 2h-2a2.006 2.006 0 0 1 -2-2 2.015 2.015 0 0 1 2-2 2.006 2.006 0 0 0 2 2z" fill="#d0d8da"/><path d="m17 43a2.015 2.015 0 0 1 -2 2h-2a2.006 2.006 0 0 1 -2-2 2.015 2.015 0 0 1 2-2 2.006 2.006 0 0 0 2 2z" fill="#d0d8da"/><path d="m39 38v1h-4v-4h1v1a2.006 2.006 0 0 0 2 2z" fill="#93999a"/><path d="m29 38v1h-4v-4h1v1a2.006 2.006 0 0 0 2 2z" fill="#93999a"/><circle cx="39" cy="23" fill="#57b7eb" r="1"/><circle cx="25" cy="23" fill="#57b7eb" r="1"/><path d="m37 19a1 1 0 0 1 -1-1v-3a1 1 0 0 1 2 0v3a1 1 0 0 1 -1 1z" fill="#57b7eb"/><path d="m27 19a1 1 0 0 1 -1-1v-3a1 1 0 0 1 2 0v3a1 1 0 0 1 -1 1z" fill="#57b7eb"/></g></g></g></svg>