<svg height="512" viewBox="0 0 64 64" width="512" xmlns="http://www.w3.org/2000/svg"><g id="Flat"><g id="Stroke_copy_2" data-name="Stroke copy 2"><g><g><rect fill="#84d2f4" height="41" rx="6" width="58" x="3" y="3"/><path d="m13 55h38a4 4 0 0 1 4 4v2a0 0 0 0 1 0 0h-46a0 0 0 0 1 0 0v-2a4 4 0 0 1 4-4z" fill="#e9f1f2"/><path d="m42 44h-20a13.082 13.082 0 0 1 -5.824 10.883l-.176.117h32l-.176-.117a13.082 13.082 0 0 1 -5.824-10.883z" fill="#d0d8da"/><path d="m55 59v2h-46v-2a4 4 0 0 1 4-4h.13a3.992 3.992 0 0 0 3.87 3h37.87a3.657 3.657 0 0 1 .13 1z" fill="#d0d8da"/><path d="m42 44h-20a13.082 13.082 0 0 1 -5.824 10.883l-.176.117z" fill="#93999a"/><path d="m61 33v5a6 6 0 0 1 -6 6h-46a6 6 0 0 1 -6-6v-29a6 6 0 0 1 6-6h7v8a22 22 0 0 0 22 22z" fill="#57b7eb"/></g><circle cx="42" cy="21" fill="#d0d8da" r="3"/><path d="m45 21a3 3 0 1 1 -3.99-2.82 2.986 2.986 0 0 0 2.99 2.82 2.718 2.718 0 0 0 .99-.18 1.087 1.087 0 0 1 .01.18z" fill="#93999a"/><path d="m30 34a12 12 0 0 1 24 0z" fill="#d0d8da"/><path d="m48.927 31a1 1 0 0 1 -.866-.5 7.073 7.073 0 0 0 -4.194-3.249 1 1 0 1 1 .534-1.928 9.1 9.1 0 0 1 5.391 4.177 1 1 0 0 1 -.364 1.367.99.99 0 0 1 -.501.133z" fill="#e9f1f2"/><path d="m55 38h-26a2 2 0 0 1 -2-2 2 2 0 0 1 2-2h26a2 2 0 0 1 2 2 2 2 0 0 1 -2 2z" fill="#d0d8da"/><path d="m29 34a2 2 0 0 0 0 4h26a2 2 0 0 0 2-2h-26a2 2 0 0 1 -2-2z" fill="#93999a"/><path d="m54 34h-24a11.99 11.99 0 0 1 5.2-9.89 11.007 11.007 0 0 0 18.17 6.06 11.831 11.831 0 0 1 .63 3.83z" fill="#93999a"/><g><path d="m10 8h34v4h-34z" fill="#4891d3"/><path d="m14 8h26v22h-26z" fill="#f9e109"/><path d="m40 21v9h-26v-22h4v3a10 10 0 0 0 10 10z" fill="#fcbc04"/><path d="m8 24h26v32h-26z" fill="#f9e109"/><path d="m34 30h6l-6-6z" fill="#e59730"/><path d="m34 49v7h-26v-32h6v15a10 10 0 0 0 10 10z" fill="#fcbc04"/><g><path d="m22 13h10a1 1 0 0 0 0-2h-10a1 1 0 0 0 0 2z" fill="#84d2f4"/><path d="m36 15h-18a1 1 0 0 0 0 2h18a1 1 0 0 0 0-2z" fill="#84d2f4"/><path d="m30 19h-12a1 1 0 0 0 0 2h12a1 1 0 0 0 0-2z" fill="#84d2f4"/><path d="m26 41a1.5 1.5 0 0 1 1.5 1.5 1 1 0 0 0 2 0 3.494 3.494 0 0 0 -2.5-3.337v-1.163a1 1 0 0 0 -2 0v1.163a3.49 3.49 0 0 0 1 6.837 1.5 1.5 0 1 1 -1.5 1.5 1 1 0 0 0 -2 0 3.494 3.494 0 0 0 2.5 3.337v1.163a1 1 0 0 0 2 0v-1.163a3.49 3.49 0 0 0 -1-6.837 1.5 1.5 0 0 1 0-3z" fill="#fcbc04"/><g fill="#84d2f4"><path d="m30 27h-18a1 1 0 0 0 0 2h18a1 1 0 0 0 0-2z"/><path d="m30 31h-18a1 1 0 0 0 0 2h18a1 1 0 0 0 0-2z"/><path d="m21 35h-9a1 1 0 0 0 0 2h9a1 1 0 0 0 0-2z"/><path d="m18 39h-6a1 1 0 0 0 0 2h6a1 1 0 0 0 0-2z"/><path d="m18 43h-6a1 1 0 0 0 0 2h6a1 1 0 0 0 0-2z"/><path d="m18 47h-6a1 1 0 0 0 0 2h6a1 1 0 0 0 0-2z"/></g></g><path d="m20.01 17h-2.01a1 1 0 0 1 0-2h.84a9.278 9.278 0 0 0 1.17 2z" fill="#57b7eb"/><path d="m28 21h-10a1 1 0 0 1 0-2h4.01a9.9 9.9 0 0 0 5.99 2z" fill="#57b7eb"/><path d="m29.16 49a3.534 3.534 0 0 1 -2.16 1.84v1.16a1 1 0 0 1 -2 0v-1.16a3.53 3.53 0 0 1 -2.19-1.91 9.389 9.389 0 0 0 1.19.07z" fill="#e59730"/><g fill="#57b7eb"><path d="m14 27v2h-2a1 1 0 0 1 0-2z"/><path d="m14 31v2h-2a1 1 0 0 1 0-2z"/><path d="m14 35v2h-2a1 1 0 0 1 0-2z"/><path d="m14.2 41h-2.2a1 1 0 0 1 0-2h2a10.048 10.048 0 0 0 .2 2z"/><path d="m16.01 45h-4.01a1 1 0 0 1 0-2h2.84a9.278 9.278 0 0 0 1.17 2z"/><path d="m19 48a1 1 0 0 1 -1 1h-6a1 1 0 0 1 0-2h6.01a8.022 8.022 0 0 0 .91.61 1.006 1.006 0 0 1 .08.39z"/></g></g><g><circle cx="53" cy="14" fill="#f9e109" r="4"/><circle cx="53" cy="14" fill="#fcbc04" r="2"/><path d="m55 14a2 2 0 0 1 -1.18 1.82 1.891 1.891 0 0 0 .18-.82 2.006 2.006 0 0 0 -2-2 1.891 1.891 0 0 0 -.82.18 2 2 0 0 1 3.82.82z" fill="#e59730"/></g></g></g></g></svg>