<svg height="512" viewBox="0 0 64 64" width="512" xmlns="http://www.w3.org/2000/svg"><g id="Flat"><g id="Stroke_copy_2" data-name="Stroke copy 2"><g><g><rect fill="#e9f1f2" height="58" rx="4" width="38" x="11" y="3"/><path d="m49 45v12a4 4 0 0 1 -4 4h-30a4 4 0 0 1 -4-4v-50a4 4 0 0 1 4-4h6v38a4 4 0 0 0 4 4z" fill="#d0d8da"/><path d="m23 9a2 2 0 0 1 -2 2h-4a2 2 0 0 0 -2 2v42a2 2 0 0 0 2 2h26a2 2 0 0 0 2-2v-46a2 2 0 0 0 -2-2h-18a2 2 0 0 0 -2 2z" fill="#84d2f4"/><g fill="#57b7eb"><path d="m17 57h26a2 2 0 0 0 2-2v-46a2 2 0 0 0 -2-2h-18.079a1.978 1.978 0 0 0 -1.921 2.041 2 2 0 0 1 -2 1.959h-4a2 2 0 0 0 -2 2v42a2 2 0 0 0 2 2zm8-12a4 4 0 0 1 -4-4v-27h1a2 2 0 0 0 2-2 2 2 0 0 1 2-2h14a2 2 0 0 1 2 2v33z"/><circle cx="15" cy="7" r="1"/><circle cx="19" cy="7" r="1"/></g><path d="m23 18h-4a1 1 0 0 1 0-2h4a1 1 0 0 1 0 2z" fill="#f9e109"/><path d="m23 22h-4a1 1 0 0 1 0-2h4a1 1 0 0 1 0 2z" fill="#f9e109"/><path d="m21 26h-2a1 1 0 0 1 0-2h2a1 1 0 0 1 0 2z" fill="#f9e109"/><path d="m18 25a1 1 0 0 0 1 1h2v-2h-2a1 1 0 0 0 -1 1zm0-4a1 1 0 0 0 1 1h2v-2h-2a1 1 0 0 0 -1 1zm1-5a1 1 0 0 0 0 2h2v-2z" fill="#fcbc04"/></g><g><g fill="#f9e109"><path d="m26.345 41.082a1 1 0 0 1 -.815-.419l-4.344-6.082a1 1 0 1 1 1.627-1.162l4.344 6.081a1 1 0 0 1 -.812 1.581z"/><path d="m24.416 42.514a1 1 0 0 1 -.64-.232l-5.417-4.514a1 1 0 1 1 1.282-1.536l5.417 4.514a1 1 0 0 1 -.642 1.768z"/><path d="m29 35a1 1 0 0 1 -.707-.292 2.417 2.417 0 0 1 0-3.416.413.413 0 0 0 0-.584 1 1 0 0 1 1.414-1.416 2.417 2.417 0 0 1 0 3.416.413.413 0 0 0 0 .584 1 1 0 0 1 -.707 1.708z"/><path d="m34 36a1 1 0 0 1 -.707-.292 2.417 2.417 0 0 1 0-3.416.413.413 0 0 0 0-.584 1 1 0 0 1 1.414-1.416 2.417 2.417 0 0 1 0 3.416.413.413 0 0 0 0 .584 1 1 0 0 1 -.707 1.708z"/><path d="m39 39a1 1 0 0 1 -.707-.292 2.417 2.417 0 0 1 0-3.416.413.413 0 0 0 0-.584 1 1 0 0 1 1.414-1.416 2.417 2.417 0 0 1 0 3.416.413.413 0 0 0 0 .584 1 1 0 0 1 -.707 1.708z"/></g><path d="m37 41c-.061 0-.118.014-.178.018a2.976 2.976 0 0 0 -4.843-1.218 1.993 1.993 0 0 0 -3.825-.565 2.987 2.987 0 0 0 -4.039 1.989 3 3 0 1 0 1.769 3.56 2.857 2.857 0 0 0 1.819.128 2.975 2.975 0 0 0 4.827-.312 2.97 2.97 0 0 0 1.47.4c.061 0 .118-.014.178-.018a2.995 2.995 0 1 0 2.822-3.982z" fill="#e9f1f2"/><path d="m40 44a2.991 2.991 0 0 1 -5.82.98 1.1 1.1 0 0 1 -.18.02 2.942 2.942 0 0 1 -1.47-.4 2.979 2.979 0 0 1 -4.83.31 3.193 3.193 0 0 1 -.7.09 2.981 2.981 0 0 1 -1.12-.22 2.992 2.992 0 1 1 -3.66-3.67 2.979 2.979 0 0 0 5.06.82 3.988 3.988 0 0 0 5.23.18 3.905 3.905 0 0 0 2.49.89 4.032 4.032 0 0 0 2.17-.64 2.927 2.927 0 0 0 1.83.64 2.882 2.882 0 0 0 .78-.11 2.93 2.93 0 0 1 .22 1.11z" fill="#d0d8da"/><path d="m25 45h.8a2.933 2.933 0 0 1 -2.8 2 3 3 0 0 1 -1.93-5.29 3.987 3.987 0 0 0 3.93 3.29z" fill="#93999a"/><path d="m19 44h22a0 0 0 0 1 0 0v2a2 2 0 0 1 -2 2h-18a2 2 0 0 1 -2-2v-2a0 0 0 0 1 0 0z" fill="#f7f754"/><path d="m41 45v1a2.006 2.006 0 0 1 -2 2h-18a2.006 2.006 0 0 1 -2-2v-2h3.36a4 4 0 0 0 2.64 1z" fill="#f9e109"/><path d="m23 48h14a0 0 0 0 1 0 0v2a2 2 0 0 1 -2 2h-10a2 2 0 0 1 -2-2v-2a0 0 0 0 1 0 0z" fill="#fcbc04"/><path d="m41 46a2.006 2.006 0 0 1 -2 2h-18a2.006 2.006 0 0 1 -2-2v-2h3a2.006 2.006 0 0 0 2 2z" fill="#fcbc04"/><path d="m37 48v2a2.006 2.006 0 0 1 -2 2 2.006 2.006 0 0 0 -2-2h-10v-2z" fill="#e59730"/><path d="m21 37.36v2.61l-2.64-2.2a1 1 0 1 1 1.28-1.54z" fill="#fcbc04"/><path d="m21 37.36v2.61l-2.64-2.2a1 1 0 1 1 1.28-1.54z" fill="#fcbc04"/></g><g><path d="m61 11h-34v13h11v6l5-6h18z" fill="#c4f236"/><path d="m61 19v5h-18l-5 6v-6h-11v-13h4a8 8 0 0 0 8 8z" fill="#a1d51c"/><g fill="#f9e109"><path d="m34.238 14.406.975 1.975 2.179.317-1.577 1.537.372 2.171-1.949-1.025-1.95 1.025.373-2.171-1.577-1.537 2.179-.317z"/><path d="m44.238 14.406.975 1.975 2.179.317-1.577 1.537.372 2.171-1.949-1.025-1.95 1.025.373-2.171-1.577-1.537 2.179-.317z"/><path d="m54.238 14.406.975 1.975 2.179.317-1.577 1.537.372 2.171-1.949-1.025-1.95 1.025.373-2.171-1.577-1.537 2.179-.317z"/></g><path d="m54.238 14.406-.015 1.727a1 1 0 0 0 1.21.986l1.959-.421-1.577 1.537.372 2.171-1.949-1.025-1.95 1.025.373-2.171-1.577-1.535 2.179-.317z" fill="#fcbc04"/><path d="m44.238 14.406-.015 1.727a1 1 0 0 0 1.21.986l1.959-.421-1.577 1.537.372 2.171-1.949-1.025-1.95 1.025.373-2.171-1.577-1.535 2.179-.317z" fill="#fcbc04"/><path d="m34.238 14.406-.015 1.727a1 1 0 0 0 1.21.986l1.959-.421-1.577 1.537.372 2.171-1.949-1.025-1.95 1.025.373-2.171-1.577-1.535 2.179-.317z" fill="#fcbc04"/><path d="m56.19 20.41-1.95-1.03-1.95 1.03.24-1.41h3.42z" fill="#e59730"/><path d="m46.19 20.41-1.95-1.03-1.95 1.03.24-1.41h3.42z" fill="#e59730"/><path d="m36.19 20.41-1.95-1.03-1.95 1.03.37-2.17-1.58-1.54 2.02-.3a7.981 7.981 0 0 0 2.74 1.95z" fill="#e59730"/></g></g></g></g></svg>