<svg height="512" viewBox="0 0 64 64" width="512" xmlns="http://www.w3.org/2000/svg"><g id="Flat"><g id="Stroke_copy_2" data-name="Stroke copy 2"><g><g><path d="m3 15h40v43h-40z" fill="#57b7eb"/><path d="m11 21v-6h4v6a2 2 0 0 1 -4 0z" fill="#4891d3"/><path d="m43 19v39h-40v-43h6v7a27.935 27.935 0 0 0 9.5 21.01l.55-2.22a5 5 0 0 1 4.85-3.79h9.22a4.009 4.009 0 0 1 -3.88-3.03l-1.24-4.97a2 2 0 0 1 0-4h1l.8-2.41a1.993 1.993 0 0 1 -.8-1.59v-6h4v4.11a4.325 4.325 0 0 1 .88-.11z" fill="#4891d3"/><path d="m12 14v7a2 2 0 0 0 2 2 2 2 0 0 0 2-2v-7a7 7 0 0 1 7-7 7 7 0 0 1 7 7v7a2 2 0 0 0 2 2 2 2 0 0 0 2-2v-7a11 11 0 0 0 -11-11 11 11 0 0 0 -11 11z" fill="#f9e109"/><path d="m11 27h24v6h-24z" fill="#f9e109"/><g fill="#fcbc04"><path d="m11 32.39c.08.2.16.41.25.61h-.25z"/><path d="m35 27v6h-6l-1-4a2.006 2.006 0 0 1 -2-2z"/><path d="m34 16.92v4.08a2.015 2.015 0 0 1 -2 2 2.006 2.006 0 0 1 -2-2v-7a7 7 0 0 0 -14 0v7a2.015 2.015 0 0 1 -2 2 2.006 2.006 0 0 1 -2-2v-7a10.986 10.986 0 0 1 9.99-10.95 11.269 11.269 0 0 1 10.01 11.31 2.63 2.63 0 0 0 2 2.56z"/><path d="m19 48h-9a1 1 0 0 1 0-2h9a1 1 0 0 1 0 2z"/></g><path d="m24 41h-13a1 1 0 0 1 0-2h13a1 1 0 0 1 0 2z" fill="#f9e109"/><path d="m21 54h-9a1 1 0 0 1 0-2h9a1 1 0 0 1 0 2z" fill="#fcbc04"/><path d="m14.77 39a24.361 24.361 0 0 0 1.68 2h-5.45a1 1 0 0 1 0-2z" fill="#fcbc04"/><path d="m25 40a1 1 0 0 1 -1 1h-5l.05-.21a4.956 4.956 0 0 1 .86-1.79h4.09a1 1 0 0 1 1 1z" fill="#fcbc04"/></g><g><path d="m47.955 61h-17.91a7 7 0 0 1 -6.645-4.786l-2.4-7.214h36l-2.4 7.214a7 7 0 0 1 -6.645 4.786z" fill="#d0d8da"/><path d="m49.55 51h6.78l.67-2h-36l2.4 7.21a7.013 7.013 0 0 0 6.65 4.79h17.9a7.013 7.013 0 0 0 6.22-3.78 7.023 7.023 0 0 1 -3.22.78 1.95 1.95 0 0 1 -1.95-1.95v-3.25a3.345 3.345 0 0 1 .55-1.8zm-20.55 5.71a7.018 7.018 0 0 1 -2.6-3.5l-.73-2.21h2.78a3.345 3.345 0 0 1 .55 1.8z" fill="#93999a"/><path d="m59 49h-40a2 2 0 0 1 -2-2 2 2 0 0 1 2-2h40a2 2 0 0 1 2 2 2 2 0 0 1 -2 2z" fill="#e9f1f2"/><path d="m61 47a2.015 2.015 0 0 1 -2 2h-40a2.006 2.006 0 0 1 -2-2 2.015 2.015 0 0 1 2-2 2.006 2.006 0 0 0 2 2h5v-.2a3.352 3.352 0 0 1 .53-1.8h24.94a3.352 3.352 0 0 1 .53 1.8v.2z" fill="#d0d8da"/><path d="m51.1 37h-24.2a5 5 0 0 0 -4.851 3.787l-1.049 4.213h36l-1.053-4.213a5 5 0 0 0 -4.847-3.787z" fill="#e9f1f2"/><path d="m57 45h-36l1.05-4.21a5 5 0 0 1 4.19-3.74l-.19.74a3.392 3.392 0 0 0 2.86 4.18 3.309 3.309 0 0 0 .09-.77v-4.2h16a5.031 5.031 0 0 0 5.026 5h6.224z" fill="#d0d8da"/><path d="m48.5 44a3.369 3.369 0 0 1 -1.5-2.8v-4.2h-16v4.2a3.369 3.369 0 0 1 -1.5 2.8 3.369 3.369 0 0 0 -1.5 2.8v.4a3.369 3.369 0 0 0 1.5 2.8 3.369 3.369 0 0 1 1.5 2.8v8.2h16v-8.2a3.369 3.369 0 0 1 1.5-2.8 3.369 3.369 0 0 0 1.5-2.8v-.4a3.369 3.369 0 0 0 -1.5-2.8z" fill="#f9e109"/><ellipse cx="39" cy="47" fill="#e9f1f2" rx="5" ry="3"/><path d="m47.1 52a3.078 3.078 0 0 0 -.1.8v1.2h-12.85a5.191 5.191 0 0 0 5.05 4h7.8v3h-16v-8.2a3.359 3.359 0 0 0 -1.5-2.8 3.359 3.359 0 0 1 -1.5-2.8v-.4a3.359 3.359 0 0 1 1.5-2.8 3.359 3.359 0 0 0 1.5-2.8v-4.2h3v4.21a3.539 3.539 0 0 1 -1.58 2.85 3.357 3.357 0 0 0 -1.42 2.74v.41a3.539 3.539 0 0 0 1.58 2.85c.01 0 .02.01.03.02a9.251 9.251 0 0 0 5.44 1.92z" fill="#fcbc04"/><path d="m43.94 47.42c-.33 1.46-2.42 2.58-4.94 2.58-2.76 0-5-1.34-5-3a2.9 2.9 0 0 1 2.06-2.42 1.523 1.523 0 0 0 -.06.42c0 1.66 2.24 3 5 3a7.441 7.441 0 0 0 2.94-.58z" fill="#d0d8da"/><path d="m35 57h8v4h-8z" fill="#e9f1f2"/><path d="m43 58v3h-8v-4h1.15a5.112 5.112 0 0 0 3.05 1z" fill="#d0d8da"/></g><g><path d="m47.877 37h-11.754a4 4 0 0 1 -3.881-3.03l-1.242-4.97h22l-1.243 4.97a4 4 0 0 1 -3.88 3.03z" fill="#d0d8da"/><path d="m48.32 31h4.18l.5-2h-22l1.24 4.97a4.009 4.009 0 0 0 3.88 3.03h11.76a4 4 0 0 0 3.64-2.35 3.924 3.924 0 0 1 -1.64.35 1.878 1.878 0 0 1 -1.88-1.88v-.71a3.42 3.42 0 0 1 .32-1.41zm-11.32 3.83a4.007 4.007 0 0 1 -2.76-2.86l-.24-.97h2.68a3.42 3.42 0 0 1 .32 1.41z" fill="#93999a"/><path d="m53 29h-22a2 2 0 0 1 -2-2 2 2 0 0 1 2-2h22a2 2 0 0 1 2 2 2 2 0 0 1 -2 2z" fill="#e9f1f2"/><path d="m55 27a2.015 2.015 0 0 1 -2 2h-22a2.006 2.006 0 0 1 -2-2 2.015 2.015 0 0 1 2-2 2.006 2.006 0 0 0 2 2h2v-.59a3.41 3.41 0 0 1 .31-1.41h14.38a3.41 3.41 0 0 1 .31 1.41v.59z" fill="#d0d8da"/><path d="m47.117 19h-10.234a4 4 0 0 0 -3.8 2.735l-1.083 3.265h20l-1.088-3.265a4 4 0 0 0 -3.795-2.735z" fill="#e9f1f2"/><path d="m52 25h-20l1.09-3.26a3.939 3.939 0 0 1 2.51-2.52l-.28.83a3.012 3.012 0 0 0 1.12 3.41 3.42 3.42 0 0 0 .56-1.87v-2.59h10.12a3.654 3.654 0 0 1 .88.1v2.52a2.5 2.5 0 0 0 2.55 2.38h1.12z" fill="#d0d8da"/><path d="m47 24a3.415 3.415 0 0 1 -1-2.414v-2.586h-8v2.586a3.415 3.415 0 0 1 -1 2.414 3.415 3.415 0 0 0 -1 2.414v1.172a3.415 3.415 0 0 0 1 2.414 3.415 3.415 0 0 1 1 2.414v4.586h8v-4.586a3.415 3.415 0 0 1 1-2.414 3.415 3.415 0 0 0 1-2.414v-1.172a3.415 3.415 0 0 0 -1-2.414z" fill="#f9e109"/><circle cx="42" cy="27" fill="#e9f1f2" r="2"/><path d="m41 32a2.046 2.046 0 0 1 -1.09-.32 2.979 2.979 0 0 1 .09.73 2.591 2.591 0 0 0 2.59 2.59h3.41v2h-8v-4.59a3.415 3.415 0 0 0 -1-2.41 3.415 3.415 0 0 1 -1-2.41v-1.18a3.415 3.415 0 0 1 1-2.41 3.415 3.415 0 0 0 1-2.41v-2.59h2v2.59a3.659 3.659 0 0 1 -1.08 2.49 3.422 3.422 0 0 0 -.92 2.33v1.2a2.5 2.5 0 0 0 2.55 2.39h6.45a3.41 3.41 0 0 0 -.97 2z" fill="#fcbc04"/><path d="m43.82 27.82a2 2 0 1 1 -2.64-2.64 1.891 1.891 0 0 0 -.18.82 2.006 2.006 0 0 0 2 2 1.891 1.891 0 0 0 .82-.18z" fill="#d0d8da"/><circle cx="42" cy="33" fill="#e9f1f2" r="1"/></g></g></g></g></svg>