<svg height="512" viewBox="0 0 64 64" width="512" xmlns="http://www.w3.org/2000/svg"><g id="Flat"><g id="Stroke_copy_2" data-name="Stroke copy 2"><g><g><path d="m15 20a1 1 0 0 1 -1-1v-2a1 1 0 0 1 2 0v2a1 1 0 0 1 -1 1z" fill="#fcbc04"/><path d="m9 19a1 1 0 0 1 -1-1 3 3 0 0 1 3-3 1 1 0 0 1 0 2 1 1 0 0 0 -1 1 1 1 0 0 1 -1 1z" fill="#f9e109"/><path d="m5 19a1 1 0 0 1 -1-1 7.008 7.008 0 0 1 7-7 1 1 0 0 1 0 2 5.006 5.006 0 0 0 -5 5 1 1 0 0 1 -1 1z" fill="#f9e109"/><path d="m23 3h34v54h-34z" fill="#f9e109"/><path d="m57 45v12h-34v-54h8v20a22 22 0 0 0 22 22z" fill="#fcbc04"/><path d="m29 7h8v18h-8z" fill="#57b7eb"/><path d="m29 34h8v18h-8z" fill="#57b7eb"/><path d="m19 57h42v4h-42z" fill="#84d2f4"/><path d="m26 59a3.982 3.982 0 0 1 -3.445-2h-3.555v4h42v-2z" fill="#57b7eb"/><circle cx="50" cy="30" fill="#fcbc04" r="2"/><path d="m51 23v-16h-8v18h3.537a5.976 5.976 0 0 1 4.463-2z" fill="#57b7eb"/><path d="m43 34v18h8v-17a5.967 5.967 0 0 1 -3.314-1z" fill="#57b7eb"/><path d="m18 23.779v-2.779a3 3 0 0 0 -6 0v2.779a2.978 2.978 0 0 0 -1 2.221v1h8v-1a2.978 2.978 0 0 0 -1-2.221z" fill="#f9e109"/><path d="m19 26v1h-8v-1a2.986 2.986 0 0 1 1-2.22v-2.78a2.968 2.968 0 0 1 2-2.82v.82a4 4 0 0 0 4 4v.78a2.986 2.986 0 0 1 1 2.22z" fill="#fcbc04"/><g fill="#4891d3"><path d="m29 7v18h8v-18zm6 16a4 4 0 0 1 -4-4v-10h2a2.006 2.006 0 0 1 2 2z"/><path d="m29 34v18h8v-18zm6 16a4 4 0 0 1 -4-4v-10h2a2.006 2.006 0 0 1 2 2z"/><path d="m43 7v18h3.54a6 6 0 0 1 4.46-2v-16zm6 14h-.05a3.82 3.82 0 0 1 -3.95-3.77v-8.23h2a2.006 2.006 0 0 1 2 2z"/><path d="m47.69 34h-4.69v18h8v-17a5.952 5.952 0 0 1 -3.31-1zm1.31 16a4 4 0 0 1 -4-4v-10h.69a5.987 5.987 0 0 0 1.8.81 1.989 1.989 0 0 1 1.51 1.93z"/></g><path d="m31 23v-16h-2v18h2.09c-.06-.66-.09-1.32-.09-2z" fill="#2d72bc"/><path d="m33.94 34h-4.94v18h8v-13.9zm1.06 16a4 4 0 0 1 -4-4v-10h2a2.006 2.006 0 0 1 2 2z" fill="#2d72bc"/><path d="m49 44.63v5.37a4 4 0 0 1 -4-4v-2.5a19.994 19.994 0 0 1 -2-.9v9.4h8v-7.09a18.869 18.869 0 0 1 -2-.28z" fill="#2d72bc"/><circle cx="51" cy="29" fill="#d0d8da" r="2"/><path d="m52.82 29.82a2 2 0 1 1 -2.64-2.64 1.891 1.891 0 0 0 -.18.82 2.006 2.006 0 0 0 2 2 1.891 1.891 0 0 0 .82-.18z" fill="#93999a"/></g><g><g fill="#d0d8da"><path d="m17 59h-13a1 1 0 0 1 0-2h13a1 1 0 0 1 0 2z"/><path d="m11 51h-4a1 1 0 0 1 0-2h4a1 1 0 0 1 0 2z"/><path d="m14.393 46h-10.393a1 1 0 0 1 0-2h10.393a1 1 0 0 1 0 2z"/><path d="m16.267 42h-6.267a1 1 0 0 1 0-2h6.267a1 1 0 0 1 0 2z"/><path d="m9 55h-3a1 1 0 0 1 0-2h3a1 1 0 0 1 0 2z"/><path d="m17 36h-10a1 1 0 0 1 0-2h10a1 1 0 0 1 0 2z"/><circle cx="25" cy="36" r="3"/></g><path d="m28 36a3 3 0 1 1 -3.99-2.82 2.986 2.986 0 0 0 2.99 2.82 2.718 2.718 0 0 0 .99-.18 1.087 1.087 0 0 1 .01.18z" fill="#93999a"/><path d="m13 49a12 12 0 0 1 24 0z" fill="#d0d8da"/><circle cx="17" cy="56" fill="#93999a" r="3"/><circle cx="33" cy="56" fill="#93999a" r="3"/><path d="m31.927 46a1 1 0 0 1 -.866-.5 7.073 7.073 0 0 0 -4.194-3.249 1 1 0 1 1 .534-1.928 9.1 9.1 0 0 1 5.391 4.177 1 1 0 0 1 -.364 1.367.99.99 0 0 1 -.501.133z" fill="#e9f1f2"/><path d="m38 53h-26a2 2 0 0 1 -2-2 2 2 0 0 1 2-2h26a2 2 0 0 1 2 2 2 2 0 0 1 -2 2z" fill="#d0d8da"/><path d="m12 49a2 2 0 0 0 0 4h26a2 2 0 0 0 2-2h-26a2 2 0 0 1 -2-2z" fill="#93999a"/><path d="m37 49h-24a11.99 11.99 0 0 1 5.2-9.89 11.007 11.007 0 0 0 18.17 6.06 11.831 11.831 0 0 1 .63 3.83z" fill="#93999a"/><circle cx="33" cy="56" fill="#d0d8da" r="1"/><circle cx="17" cy="56" fill="#d0d8da" r="1"/><path d="m35.56 57.56a2.965 2.965 0 0 1 -2.56 1.44 3 3 0 0 1 0-6 2.94 2.94 0 0 1 2.23 1h-4.05a2.98 2.98 0 0 0 2.82 4 2.955 2.955 0 0 0 1.56-.44z" fill="#656b76"/><path d="m19.56 57.56a2.965 2.965 0 0 1 -2.56 1.44 3 3 0 0 1 0-6 2.94 2.94 0 0 1 2.23 1h-4.05a2.98 2.98 0 0 0 2.82 4 2.955 2.955 0 0 0 1.56-.44z" fill="#656b76"/></g></g></g></g></svg>