<svg height="512" viewBox="0 0 64 64" width="512" xmlns="http://www.w3.org/2000/svg"><g id="Flat"><g id="Stroke_copy_2" data-name="Stroke copy 2"><g><g fill="#93999a"><path d="m22 55h-18a1 1 0 0 1 0-2h18a1 1 0 0 1 0 2z"/><path d="m50 55h-9a1 1 0 0 1 0-2h9a1 1 0 0 1 0 2z"/><path d="m37 55h-5a1 1 0 0 1 0-2h5a1 1 0 0 1 0 2z"/><path d="m13 49h-4a1 1 0 0 1 0-2h4a1 1 0 0 1 0 2z"/><path d="m13 43h-6a1 1 0 0 1 0-2h6a1 1 0 0 1 0 2z"/><path d="m17 24h-8a1 1 0 0 1 0-2h8a1 1 0 0 1 0 2z"/><path d="m12 30h-8a1 1 0 0 1 0-2h8a1 1 0 0 1 0 2z"/><path d="m12 35h-4a1 1 0 0 1 0-2h4a1 1 0 0 1 0 2z"/><path d="m22 43h28v5h-28z"/></g><path d="m50 43v5h-7.91a5.832 5.832 0 0 1 1.45-3h-15.08a5.832 5.832 0 0 1 1.45 3h-7.91v-5z" fill="#656b76"/><path d="m40 21h-8v-4a4 4 0 0 1 4-4 4 4 0 0 1 4 4z" fill="#d0d8da"/><path d="m40 17v4h-8v-4a3.965 3.965 0 0 1 2.46-3.68 6.016 6.016 0 0 0 5.54 3.68z" fill="#93999a"/><path d="m16 39a20 20 0 0 1 40 0z" fill="#d0d8da"/><path d="m49.685 31.716a1 1 0 0 1 -.855-.481c-.086-.14-.173-.279-.263-.417a1 1 0 0 1 1.675-1.093c.1.155.2.313.3.471a1 1 0 0 1 -.854 1.52z" fill="#e9f1f2"/><path d="m47.19 28.574a1 1 0 0 1 -.7-.285 14.91 14.91 0 0 0 -10.49-4.289 1 1 0 0 1 0-2 16.9 16.9 0 0 1 11.89 4.859 1 1 0 0 1 -.7 1.715z" fill="#e9f1f2"/><path d="m59 43h-46a2 2 0 0 1 -2-2 2 2 0 0 1 2-2h46a2 2 0 0 1 2 2 2 2 0 0 1 -2 2z" fill="#d0d8da"/><circle cx="50" cy="49" fill="#f8664f" r="6"/><circle cx="50" cy="49" fill="#d0d8da" r="2"/><circle cx="22" cy="49" fill="#f8664f" r="6"/><circle cx="22" cy="49" fill="#d0d8da" r="2"/><path d="m56 39h-40a19.9 19.9 0 0 1 7.07-15.25 15.982 15.982 0 0 0 14.93 10.25h17.37a20.148 20.148 0 0 1 .63 5z" fill="#93999a"/><path d="m61 41a2.015 2.015 0 0 1 -2 2h-46a2.006 2.006 0 0 1 -2-2 2.015 2.015 0 0 1 2-2 2.006 2.006 0 0 0 2 2z" fill="#93999a"/><path d="m52 53a5.91 5.91 0 0 0 3.12-.88 6 6 0 1 1 .07-6.12h-9.1a5.47 5.47 0 0 0 -.09 1 6 6 0 0 0 6 6z" fill="#cc5144"/><path d="m24 53a5.91 5.91 0 0 0 3.12-.88 6 6 0 1 1 .07-6.12h-9.1a5.47 5.47 0 0 0 -.09 1 6 6 0 0 0 6 6z" fill="#cc5144"/></g></g></g></svg>