<svg height="512" viewBox="0 0 64 64" width="512" xmlns="http://www.w3.org/2000/svg"><g id="Flat"><g id="Stroke_copy_2" data-name="Stroke copy 2"><g><path d="m57 53h-50v-37l25-11 25 11z" fill="#e9f1f2"/><path d="m14 26.48v3.52a19.994 19.994 0 0 0 20 20h23v3h-50v-37l25-11 25 11v5.89l-25-8.89-11.36 4.06a10 10 0 0 0 -6.64 9.42z" fill="#d0d8da"/><path d="m32 9 28.125 10 .875-6-29-10-29 10 1 6z" fill="#f9e109"/><path d="m3 57h58v4h-58z" fill="#f9e109"/><g><circle cx="32" cy="35" fill="#84d2f4" r="13"/><path d="m39.13 42.81a12.768 12.768 0 0 0 4.23-1.49 13 13 0 1 1 -17.68-17.68 13.087 13.087 0 0 0 -1.02 2.29 4.079 4.079 0 0 1 .17 2.58l5.34 5.34 5.34-5.34a3.976 3.976 0 0 1 1.03-3.85l1.28-1.29c.19.1.39.21.58.32l4.91 4.91c.08.13.15.25.22.38l-1.34 1.33a3.976 3.976 0 0 1 -3.85 1.03l-5.34 5.34z" fill="#57b7eb"/><circle cx="32" cy="35" fill="#57b7eb" r="9"/><path d="m32 26a9 9 0 1 0 9 9 9 9 0 0 0 -9-9zm-2 2a8.934 8.934 0 0 1 4.69 1.33l-4.52 4.52-4.64-4.64a8.825 8.825 0 0 1 4.47-1.21zm-3.55 9.57a13.116 13.116 0 0 1 -1.82-3.6l2.71 2.71zm2.81 2.85.91-.91 2.86 2.86a12.986 12.986 0 0 1 -3.77-1.95zm8.53 1.05-4.79-4.79 4.56-4.56a8.959 8.959 0 0 1 1.44 4.88 8.825 8.825 0 0 1 -1.21 4.47z" fill="#4891d3"/><g><path d="m41.364 45.87a2 2 0 0 1 -2.829 0l-15.556-15.556 2.829-2.829 15.556 15.557a2 2 0 0 1 0 2.828z" fill="#fcbc04"/><path d="m41.36 45.87a1.992 1.992 0 0 1 -2.82 0l-15.56-15.56 2.83-2.82 1.06 1.06a4.028 4.028 0 0 1 -.54 3.12l5.01 5.01 1.83-1.83 2.83 2.83-1.83 1.83 3.37 3.36a1.992 1.992 0 0 0 2.82 0 1.6 1.6 0 0 0 .35-.48l.65.65a2 2 0 0 1 0 2.83z" fill="#e59730"/><path d="m25.808 30.314a4 4 0 0 1 -5.657 0l-2.829-2.829a4 4 0 0 1 0-5.657 4 4 0 0 1 5.657 0l2.829 2.829a4 4 0 0 1 0 5.657z" fill="#f9e109"/></g><path d="m22.979 45.87a2 2 0 0 1 0-2.828l15.556-15.557 2.829 2.829-15.556 15.556a2 2 0 0 1 -2.829 0z" fill="#f9e109"/><path d="m41.36 30.31-15.55 15.56a2 2 0 0 1 -2.83-2.83l.65-.65a2.036 2.036 0 0 0 .35.48 2 2 0 0 0 2.83 0l11.21-11.21a3.948 3.948 0 0 1 -.54-3.11l1.06-1.06z" fill="#fcbc04"/><path d="m38.535 30.314a4 4 0 0 1 0-5.657l1.415-1.414 5.657 5.657-1.415 1.415a4 4 0 0 1 -5.657-.001z" fill="#f7f754"/><path d="m44.107 27.4-.915.915a4 4 0 0 1 -5.657 0c-.039-.04-.066-.087-.1-.128a3.993 3.993 0 0 0 6.761 2.128l1.411-1.415z" fill="#f9e109"/><path d="m26.92 28.19a4 4 0 0 1 -6.77 2.12l-2.83-2.82a4 4 0 0 1 -.11-5.54 4.018 4.018 0 0 0 1.11 3.54l2.83 2.82a3.99 3.99 0 0 0 5.66 0 1.2 1.2 0 0 0 .11-.12z" fill="#fcbc04"/><path d="m44.9 29.192a1 1 0 0 1 -.707-1.707l4.243-4.242a1 1 0 0 1 1.414 1.414l-4.244 4.243a.993.993 0 0 1 -.706.292z" fill="#f9e109"/><g fill="#f7f754"><path d="m42.778 27.071a1 1 0 0 1 -.707-1.707l4.242-4.243a1 1 0 0 1 1.414 1.414l-4.242 4.243a.993.993 0 0 1 -.707.293z"/><path d="m40.657 24.949a1 1 0 0 1 -.707-1.707l4.242-4.242a1 1 0 0 1 1.414 1.414l-4.242 4.242a.993.993 0 0 1 -.707.293z"/></g></g><path d="m5 53h54v4h-54z" fill="#f9e109"/><g fill="#84d2f4"><path d="m7 34h7v19h-7z"/><path d="m53 28h4v4h-4z"/><path d="m53 32h4v4h-4z"/><path d="m30 14h4v4h-4z"/></g><path d="m59 55v2h-54v-4h4.54a4.225 4.225 0 0 0 .63.83 4.025 4.025 0 0 0 2.83 1.17z" fill="#fcbc04"/><path d="m61 59v2h-58v-4h4.54a4.225 4.225 0 0 0 .63.83 4.025 4.025 0 0 0 2.83 1.17z" fill="#fcbc04"/><path d="m57 32h-4v-4z" fill="#57b7eb"/><path d="m34 18h-4v-4z" fill="#57b7eb"/><path d="m57 36h-4v-4z" fill="#57b7eb"/><path d="m7 34v19h7v-19zm5 16a3 3 0 0 1 -3-3v-11h1a2.006 2.006 0 0 1 2 2z" fill="#57b7eb"/><path d="m60.58 15.86-.46 3.14-28.12-10-28 10-.53-3.16 28.53-9.84z" fill="#fcbc04"/><path d="m14 42h-2a1 1 0 0 1 0-2h2z" fill="#93999a"/><path d="m57 37h-5a1 1 0 0 1 0-2h5z" fill="#d0d8da"/></g></g></g></svg>