<svg height="512" viewBox="0 0 64 64" width="512" xmlns="http://www.w3.org/2000/svg"><g id="Flat"><g id="Stroke_copy_2" data-name="Stroke copy 2"><g><path d="m47 39v-4h-4v4a6 6 0 0 0 6 6h6a2 2 0 0 1 2 2v6a4 4 0 0 1 -4 4h-42v4h42a8 8 0 0 0 8-8v-7a5 5 0 0 0 -5-5h-7a2 2 0 0 1 -2-2z" fill="#f9e109"/><path d="m61 50.82v2.18a8 8 0 0 1 -8 8h-42v-4h8.18a2.968 2.968 0 0 0 2.82 2h27a2.993 2.993 0 0 0 2.12-.88 2.838 2.838 0 0 0 .7-1.12h1.18a4 4 0 0 0 4-4v-6a2.006 2.006 0 0 0 -2-2h-6a6 6 0 0 1 -6-6v-4h4v2.54a4.225 4.225 0 0 0 -.83.63 4.025 4.025 0 0 0 -1.17 2.83 2.006 2.006 0 0 0 2 2h7a5 5 0 0 1 5 5 2.968 2.968 0 0 0 2 2.82z" fill="#fcbc04"/><g><path d="m34 15h22v20h-22z" fill="#d0d8da"/><path d="m37.82 17.82a2.754 2.754 0 0 0 -.82 1.98 11.194 11.194 0 0 0 11.2 11.2h7.8v4h-22v-20h22v2h-16.2a2.754 2.754 0 0 0 -1.98.82z" fill="#93999a"/><path d="m61 15h-32l16-12z" fill="#f9e109"/><path d="m41 27h8v8h-8z" fill="#84d2f4"/><path d="m47 19h4v4h-4z" fill="#84d2f4"/><path d="m43 19h4v4h-4z" fill="#84d2f4"/><path d="m39 19h4v4h-4z" fill="#84d2f4"/><g fill="#57b7eb"><path d="m51 23h-4v-4z"/><path d="m47 23h-4v-4z"/><path d="m43 23h-4v-4z"/><path d="m41 27v8h8v-8zm7 6h-2a3 3 0 0 1 -3-3v-2h3a2.006 2.006 0 0 1 2 2z"/><path d="m49 31v4h-8v-6.62a11.1 11.1 0 0 0 7.2 2.62z"/></g><path d="m48 31v2h-2a3 3 0 0 1 -3-3v-.28a10.43 10.43 0 0 1 -2-1.34v6.62h8v-4z" fill="#4891d3"/><path d="m61 15h-32l12.47-9.35a6.568 6.568 0 0 0 6.53 5.35h7.67z" fill="#fcbc04"/></g><path d="m11 41a8 8 0 0 0 -8 8c0 6.5 8 12 8 12s8-5.5 8-12a8 8 0 0 0 -8-8zm0 11a3 3 0 1 1 3-3 3 3 0 0 1 -3 3z" fill="#f8664f"/><path d="m32 47h6v6h-6z" fill="#d0d8da"/><path d="m40 47h-10l5-5z" fill="#f9e109"/><g><path d="m20 41 5.887-5.83a15 15 0 1 0 -6.055.771z" fill="#84d2f4"/><path d="m34.26 28a15.036 15.036 0 0 1 -8.37 7.17l-5.89 5.83-.17-5.06a14.992 14.992 0 0 1 -4.83-28.69v4.75a16 16 0 0 0 16 16z" fill="#57b7eb"/><g><path d="m15 18a9 9 0 0 0 9 9l5-13z" fill="#f7f754"/><path d="m29 14-5 13a9 9 0 0 1 -9-9l.88-.25a5.375 5.375 0 0 0 1.67 1.83 2.464 2.464 0 0 0 .34.22 5.077 5.077 0 0 0 .81.4c.01 0 .01 0 .02.01a6 6 0 0 0 5.38-.52c.13-.08.24-.16.36-.25a5.087 5.087 0 0 0 .65-.58 6.01 6.01 0 0 0 1.24-1.98l.92-2.39z" fill="#f9e109"/><path d="m15 18a9 9 0 0 0 9 9v1.813a2 2 0 0 1 -2.337 1.978 13.016 13.016 0 0 1 -10.454-10.454 2 2 0 0 1 1.973-2.337z" fill="#e59730"/><path d="m29 14-1.52 3.95a2.968 2.968 0 0 1 -2.47-2.81z" fill="#f89c8d"/><path d="m25.4 23.35-1.4 3.65a9.059 9.059 0 0 1 -2.96-.5 2.737 2.737 0 0 1 -.04-.5 3 3 0 0 1 4.4-2.65z" fill="#f8664f"/><path d="m22 18a2 2 0 0 1 -4 0 1.9 1.9 0 0 1 .23-.92l2.79-.8a2 2 0 0 1 .98 1.72z" fill="#f89c8d"/><path d="m24.2 26.48-.2.52a9 9 0 0 1 -9-9l1.05-.3a15.986 15.986 0 0 0 8.15 8.78z" fill="#fcbc04"/><path d="m24.2 26.48-.2.52a9.059 9.059 0 0 1 -2.96-.5 2.737 2.737 0 0 1 -.04-.5 2.9 2.9 0 0 1 .29-1.28 15.337 15.337 0 0 0 2.91 1.76z" fill="#cc5144"/><path d="m29 14-1.52 3.95a2.908 2.908 0 0 1 -1.34-.59 3.478 3.478 0 0 0 .21-.48l.92-2.39z" fill="#f8664f"/></g></g><path d="m40 47h-10l3.83-3.83a2 2 0 0 0 2 1.83h2.17z" fill="#fcbc04"/><path d="m38 49h-4a2.006 2.006 0 0 0 2 2h2v2h-6v-6h6z" fill="#93999a"/><path d="m14 54a9 9 0 0 1 -9-9 9.358 9.358 0 0 1 .11-1.41 7.95 7.95 0 0 0 -2.11 5.41c0 6.5 8 12 8 12s4.91-3.38 7.04-7.96a8.976 8.976 0 0 1 -4.04.96z" fill="#cc5144"/></g></g></g></svg>