<svg height="512" viewBox="0 0 64 64" width="512" xmlns="http://www.w3.org/2000/svg"><g id="Flat"><g id="Stroke_copy_2" data-name="Stroke copy 2"><g><rect fill="#e9f1f2" height="38" rx="4" width="58" x="3" y="4"/><path d="m61 31v7a4 4 0 0 1 -4 4h-50a4 4 0 0 1 -4-4v-30a4 4 0 0 1 4-4h7v23a4 4 0 0 0 4 4z" fill="#d0d8da"/><path d="m7 8h46v30h-46z" fill="#84d2f4"/><path d="m7 8v30h46v-30zm43 23h-18a18 18 0 0 1 -18-18v-2h32a4 4 0 0 1 4 4z" fill="#57b7eb"/><g><path d="m33 17a9 9 0 0 0 9 9l5-13z" fill="#f9e109"/><path d="m47 13-5 13a9 9 0 0 1 -9-9l.88-.25a5.375 5.375 0 0 0 1.67 1.83 2.464 2.464 0 0 0 .34.22 5.077 5.077 0 0 0 .81.4c.01 0 .01 0 .02.01a6 6 0 0 0 5.38-.52c.13-.08.24-.16.36-.25a5.087 5.087 0 0 0 .65-.58 6.01 6.01 0 0 0 1.24-1.98l.92-2.39z" fill="#fcbc04"/><path d="m33 17a9 9 0 0 0 9 9v1.813a2 2 0 0 1 -2.337 1.978 13.016 13.016 0 0 1 -10.454-10.454 2 2 0 0 1 1.973-2.337z" fill="#e59730"/><path d="m47 13-1.52 3.95a2.968 2.968 0 0 1 -2.47-2.81z" fill="#f89c8d"/><path d="m43.4 22.35-1.4 3.65a9.059 9.059 0 0 1 -2.96-.5 2.737 2.737 0 0 1 -.04-.5 3 3 0 0 1 4.4-2.65z" fill="#f8664f"/><path d="m40 17a2 2 0 0 1 -4 0 1.9 1.9 0 0 1 .23-.92l2.79-.8a2 2 0 0 1 .98 1.72z" fill="#f89c8d"/><path d="m47 13-1.52 3.95a2.908 2.908 0 0 1 -1.34-.59 3.478 3.478 0 0 0 .21-.48l.92-2.39z" fill="#f8664f"/></g><g><path d="m53 39v11a5.985 5.985 0 0 1 -3 5.19v5.81h-12v-5.07a4.825 4.825 0 0 1 -4-4.75 4.818 4.818 0 0 0 -.64-2.4l-4.02-6.97a2.546 2.546 0 0 1 1.39-3.68 2.6 2.6 0 0 1 3.05 1.22l3.22 5.57v-13.92a2 2 0 0 1 4 0v6a2 2 0 0 1 4 0 2 2 0 0 1 4 0v2a2 2 0 0 1 4 0z" fill="#f9e109"/><g fill="#fcbc04"><path d="m43 35a2 2 0 0 0 -2 2v5a2 2 0 0 0 2-2v-2a1.992 1.992 0 0 1 1.737-1.973 1.992 1.992 0 0 0 -1.737-1.027z"/><path d="m47 35a2 2 0 0 0 -2 2v5a2 2 0 0 0 2-2v-2a1.992 1.992 0 0 1 1.737-1.973 1.992 1.992 0 0 0 -1.737-1.027z"/><path d="m51 37a2 2 0 0 0 -2 2v4a2 2 0 0 0 2-2v-1a1.992 1.992 0 0 1 1.737-1.973 1.992 1.992 0 0 0 -1.737-1.027z"/><path d="m52.91 51a5.939 5.939 0 0 1 -2.91 4.19v5.81h-12v-5.07a4.825 4.825 0 0 1 -4-4.75 4.818 4.818 0 0 0 -.64-2.4l-4.02-6.97a2.546 2.546 0 0 1 1.39-3.68 2.5 2.5 0 0 1 2.29.38 2.531 2.531 0 0 0 -.68 3.3l.55.96a4.465 4.465 0 0 0 4.11 2.23v-14a1.994 1.994 0 0 1 3.74-.97 2 2 0 0 0 -1.74 1.97v7a12 12 0 0 0 12 12z"/></g><path d="m38 59v-3h3a6.709 6.709 0 0 0 -3 3z" fill="#e59730"/></g><path d="m12 13h12v4h-12z" fill="#f8664f"/><path d="m14.46 17h-2.46v-4h2a17.1 17.1 0 0 0 .46 4z" fill="#cc5144"/><path d="m57 16a1 1 0 0 0 -1 1v10a1 1 0 0 0 2 0v-10a1 1 0 0 0 -1-1z" fill="#57b7eb"/><path d="m20 20h-8a1 1 0 0 0 0 2h8a1 1 0 0 0 0-2z" fill="#c4f236"/><path d="m25 25a1 1 0 0 1 1 1 1 1 0 0 0 2 0 3 3 0 0 0 -2-2.816v-1.184a1 1 0 0 0 -2 0v1.184a2.993 2.993 0 0 0 1 5.816 1 1 0 1 1 -1 1 1 1 0 0 0 -2 0 3 3 0 0 0 2 2.816v1.184a1 1 0 0 0 2 0v-1.184a2.993 2.993 0 0 0 -1-5.816 1 1 0 0 1 0-2z" fill="#f9e109"/><path d="m17 26a1 1 0 0 0 0-2h-3a1 1 0 0 0 0 2z" fill="#a1d51c"/><path d="m19 28h-7a1 1 0 0 0 0 2h7a1 1 0 0 0 0-2z" fill="#a1d51c"/><path d="m19 32h-5a1 1 0 0 0 0 2h5a1 1 0 0 0 0-2z" fill="#a1d51c"/><g fill="#f9e109"><circle cx="49" cy="20" r="1"/><circle cx="47" cy="24" r="1"/><circle cx="49" cy="27" r="1"/></g><path d="m26 29.97v.03a1 1 0 0 1 -2 0 1 1 0 0 0 -2 0 3.01 3.01 0 0 0 2 2.82v1.18a1 1 0 0 0 2 0v-1.18a3.018 3.018 0 0 0 1.95-2.29 14.084 14.084 0 0 1 -1.95-.56z" fill="#fcbc04"/><path d="m12 20a1 1 0 0 0 0 2h4.42a14.928 14.928 0 0 1 -1-2z" fill="#a1d51c"/></g></g></g></svg>