<svg height="512" viewBox="0 0 64 64" width="512" xmlns="http://www.w3.org/2000/svg"><g id="Flat"><g id="Stroke_copy_2" data-name="Stroke copy 2"><g><g fill="#7ab92d"><path d="m50 61h-7a1 1 0 0 1 0-2h7a1 1 0 0 1 0 2z"/><path d="m39 61h-4a1 1 0 0 1 0-2h4a1 1 0 0 1 0 2z"/><path d="m27 61h-15a1 1 0 0 1 0-2h15a1 1 0 0 1 0 2z"/><path d="m8 61h-5a1 1 0 0 1 0-2h5a1 1 0 0 1 0 2z"/><path d="m17 57h-9a1 1 0 0 1 0-2h9a1 1 0 0 1 0 2z"/><path d="m15 41h-11a1 1 0 0 1 0-2h11a1 1 0 0 1 0 2z"/><path d="m10 47h-4a1 1 0 0 1 0-2h4a1 1 0 0 1 0 2z"/><path d="m20 5h-16a1 1 0 0 1 0-2h16a1 1 0 0 1 0 2z"/><path d="m20 11h-12a1 1 0 0 1 0-2h12a1 1 0 0 1 0 2z"/><path d="m15 16h-4a1 1 0 0 1 0-2h4a1 1 0 0 1 0 2z"/><path d="m19 32h-13a1 1 0 0 1 0-2h13a1 1 0 0 1 0 2z"/><path d="m19 28h-6a1 1 0 0 1 0-2h6a1 1 0 0 1 0 2z"/></g><g><path d="m19 3h42v36h-42z" fill="#c4f236"/><path d="m61 32v7h-42v-36h12v10a19 19 0 0 0 19 19z" fill="#a1d51c"/><path d="m19 3h4v36h-4z" fill="#7ab92d"/><path d="m23 24h-3a3 3 0 0 1 -3-3 3 3 0 0 1 3-3h3z" fill="#f9e109"/><path d="m23 18v6h-3a3 3 0 0 1 -2.12-5.12.806.806 0 0 1 .14-.12.974.974 0 0 0 -.02.24 3 3 0 0 0 3 3v-4z" fill="#fcbc04"/></g><path d="m14 39h42v6h-42z" fill="#7ab92d"/><path d="m9 45h42v6h-42z" fill="#a1d51c"/><path d="m17 51h42v6h-42z" fill="#7ab92d"/><g><path d="m43.836 35.56a30.173 30.173 0 0 1 -16.4-16.4l28-11.6z" fill="#fcbc04"/><path d="m45.54 31.47-1.7 4.09a30.163 30.163 0 0 1 -16.4-16.4l4.09-1.7a19.016 19.016 0 0 0 14.01 14.01z" fill="#e59730"/><path d="m46.089 30.124 9.351-22.564-22.564 9.351a24.575 24.575 0 0 0 13.213 13.213z" fill="#f7f754"/><path d="m50.98 18.33-4.89 11.79a24.561 24.561 0 0 1 -13.21-13.21l3.72-1.54a10.124 10.124 0 0 0 14.38 2.96z" fill="#f9e109"/><circle cx="42" cy="25" fill="#f8664f" r="2"/><circle cx="41" cy="16" fill="#f89c8d" r="2"/><path d="m52.27 15.21-3.05 7.36a3.956 3.956 0 0 1 -2.22-3.57 4 4 0 0 1 4-4 3.845 3.845 0 0 1 1.27.21z" fill="#f89c8d"/><path d="m50.98 18.33-1.76 4.24a3.951 3.951 0 0 1 -2.11-2.63 10.127 10.127 0 0 0 3.87-1.61z" fill="#f8664f"/></g><circle cx="55" cy="32" fill="#f8664f" r="2"/><path d="m56 39v3h-34a4.025 4.025 0 0 0 -2.83 1.17 4.078 4.078 0 0 0 -1.04 1.83h-4.13v-6z" fill="#5ba006"/><path d="m59 51v3h-31a4.025 4.025 0 0 0 -2.83 1.17 4.078 4.078 0 0 0 -1.04 1.83h-7.13v-6z" fill="#5ba006"/><path d="m53 56a4.712 4.712 0 0 1 -.1 1h-9.8a4.712 4.712 0 0 1 -.1-1 5 5 0 0 1 10 0z" fill="#5ba006"/><path d="m51 51v-3h-34a4.025 4.025 0 0 1 -2.83-1.17 4.078 4.078 0 0 1 -1.04-1.83h-4.13v6z" fill="#7ab92d"/><circle cx="27" cy="56" fill="#f9e109" r="5"/><circle cx="50" cy="56" fill="#f9e109" r="5"/><path d="m31.39 58.39a5 5 0 1 1 -6.78-6.78 4.935 4.935 0 0 0 -.61 2.39 5 5 0 0 0 5 5 4.935 4.935 0 0 0 2.39-.61z" fill="#fcbc04"/><path d="m54.39 58.39a5 5 0 1 1 -6.78-6.78 4.935 4.935 0 0 0 -.61 2.39 5 5 0 0 0 5 5 4.935 4.935 0 0 0 2.39-.61z" fill="#fcbc04"/><circle cx="50" cy="56" fill="#f8664f" r="1"/><circle cx="27" cy="56" fill="#f8664f" r="1"/><path d="m56 25a1 1 0 0 1 -1-1v-6a1 1 0 0 1 2 0v6a1 1 0 0 1 -1 1z" fill="#84d2f4"/><path d="m32 8h-5a1 1 0 0 1 0-2h5a1 1 0 0 1 0 2z" fill="#84d2f4"/><path d="m30 12h-3a1 1 0 0 1 0-2h3a1 1 0 0 1 0 2z" fill="#84d2f4"/><path d="m31 35h-4a1 1 0 0 1 0-2h4a1 1 0 0 1 0 2z" fill="#4891d3"/></g></g></g></svg>