<svg height="512" viewBox="0 0 64 64" width="512" xmlns="http://www.w3.org/2000/svg"><g id="Flat"><g id="Stroke_copy_2" data-name="Stroke copy 2"><g id="Layer_5_copy_6" data-name="Layer 5 copy 6"><g><path d="m9 53h-5a1 1 0 0 1 0-2h5a1 1 0 0 1 0 2z" fill="#57b7eb"/><path d="m10 48h-4a1 1 0 0 1 0-2h4a1 1 0 0 1 0 2z" fill="#57b7eb"/><path d="m14.918 41.939-5.518-4.139a1 1 0 0 1 -.4-.8v-5h2v4.5l5.118 3.839z" fill="#d0d8da"/><path d="m19.9 40.04-3.581-3.3a1 1 0 0 1 -.319-.74v-4h2v3.562l3.26 3.008z" fill="#d0d8da"/><path d="m53 61h-12a1 1 0 0 1 0-2h12a1 1 0 0 1 0 2z" fill="#57b7eb"/><path d="m17 61h-9a1 1 0 0 1 0-2h9a1 1 0 0 1 0 2z" fill="#57b7eb"/><circle cx="17" cy="55" fill="#57b7eb" r="6"/><path d="m19 59a5.936 5.936 0 0 0 3.12-.88 5.994 5.994 0 1 1 .88-3.12h-9.65a5.991 5.991 0 0 0 5.65 4z" fill="#4891d3"/><path d="m49 22h6a0 0 0 0 1 0 0v6a0 0 0 0 1 0 0h-8a0 0 0 0 1 0 0v-4a2 2 0 0 1 2-2z" fill="#e9f1f2"/><path d="m56 28h-1v-6h1a3 3 0 0 1 3 3 3 3 0 0 1 -3 3z" fill="#f9e109"/><circle cx="17" cy="55" fill="#656b76" r="2"/><circle cx="52" cy="55" fill="#57b7eb" r="6"/><path d="m55 60c.11 0 .22 0 .33-.01a6 6 0 1 1 2.67-4.99h-5.86l-.26.21a17.348 17.348 0 0 1 -2.24 1.48 6 6 0 0 0 5.36 3.31z" fill="#4891d3"/><circle cx="52" cy="55" fill="#656b76" r="2"/><g><path d="m7 9h14a4 4 0 0 1 4 4v16a0 0 0 0 1 0 0h-22a0 0 0 0 1 0 0v-16a4 4 0 0 1 4-4z" fill="#84d2f4"/><path d="m25 25v4h-22v-16a4 4 0 0 1 4-4h2v1a15.005 15.005 0 0 0 15 15z" fill="#57b7eb"/><rect fill="#f9e109" height="12" rx="2" width="10" x="9" y="13"/><g fill="#fcbc04"><path d="m18.71 24.04a2.03 2.03 0 0 1 -1.71.96h-6a2.006 2.006 0 0 1 -2-2v-8a1.978 1.978 0 0 1 .46-1.27 15.074 15.074 0 0 0 9.25 10.31z"/><path d="m18.71 24.04a2.03 2.03 0 0 1 -1.71.96h-6a2.006 2.006 0 0 1 -2-2v-8a1.978 1.978 0 0 1 .46-1.27 15.074 15.074 0 0 0 9.25 10.31z"/><path d="m10.231 13.154a2 2 0 0 0 -1.231 1.846v8a2 2 0 0 0 2 2h6a2 2 0 0 0 2-2h-7a1 1 0 0 1 -1-1h8v-7h-6a3 3 0 0 1 -2.769-1.846z"/></g><path d="m16.52 23h-4.52a1 1 0 0 1 -1-1h4a15.093 15.093 0 0 1 -5.54-8.28 2.041 2.041 0 0 0 -.46 1.28v8a2.006 2.006 0 0 0 2 2h6a2.03 2.03 0 0 0 1.71-.96 15.684 15.684 0 0 1 -2.19-1.04z" fill="#e59730"/><path d="m19 21h-10a2 2 0 0 1 -2-2 2 2 0 0 1 2-2h10a2 2 0 0 1 2 2 2 2 0 0 1 -2 2z" fill="#f89c8d"/><path d="m9 17a2 2 0 0 0 0 4h10a2 2 0 0 0 2-2h-10a2 2 0 0 1 -2-2z" fill="#f8664f"/><path d="m13.82 21h-4.82a2.006 2.006 0 0 1 -2-2 2.015 2.015 0 0 1 2-2h1.73a14.734 14.734 0 0 0 3.09 4z" fill="#f8664f"/><path d="m13.82 21h-4.82a2 2 0 0 1 0-4 2.006 2.006 0 0 0 2 2h1a14.411 14.411 0 0 0 1.82 2z" fill="#cc5144"/><path d="m15 17v1a1 1 0 0 1 -2 0v-1z" fill="#f8664f"/><path d="m18 17v1a1 1 0 0 1 -2 0v-1z" fill="#f8664f"/><path d="m12 17v1a1 1 0 0 1 -2 0v-1z" fill="#f8664f"/><path d="m11.75 18.65a.992.992 0 0 1 -.75.35 1 1 0 0 1 -1-1v-1h.73a16.235 16.235 0 0 0 1.02 1.65z" fill="#cc5144"/></g><path d="m6 29h16a0 0 0 0 1 0 0v2a2 2 0 0 1 -2 2h-12a2 2 0 0 1 -2-2v-2a0 0 0 0 1 0 0z" fill="#57b7eb"/><path d="m33 51h-23a14 14 0 0 1 14-14h9z" fill="#d0d8da"/><path d="m28.88 39.88a2.993 2.993 0 0 0 -.88 2.12 5 5 0 0 0 5 5v4h-23a14 14 0 0 1 14-14h9v2h-2a2.993 2.993 0 0 0 -2.12.88z" fill="#93999a"/><path d="m26 53h-18a12 12 0 0 1 12-12 6 6 0 0 1 6 6z" fill="#e9f1f2"/><path d="m35 37h-8a2 2 0 0 1 -2-2 2 2 0 0 1 2-2h8a2 2 0 0 1 2 2 2 2 0 0 1 -2 2z" fill="#57b7eb"/><path d="m55 50-4-22h-4v13a13.013 13.013 0 0 0 -7.638 9h-13.362v4a3 3 0 0 0 3 3h10.824a18 18 0 0 0 11.051-3.792z" fill="#d0d8da"/><path d="m55 50-1.6-8.8a12.105 12.105 0 0 1 -4.068-7.876l-.112-1.124a2 2 0 0 1 1.99-2.2h.154l-.364-2h-4v9.184a2.992 2.992 0 0 1 2 2.816v-.068a3.289 3.289 0 0 1 -1.569 2.851 13.038 13.038 0 0 0 -5.424 6.224 3.251 3.251 0 0 1 -3.007 1.993h-2a2.978 2.978 0 0 1 -2.221-1h-8.779v4a3 3 0 0 0 3 3h10.824a18 18 0 0 0 11.051-3.792z" fill="#93999a"/><path d="m43 53a9 9 0 0 1 18 0z" fill="#e9f1f2"/><path d="m22 29v2h-10a2.968 2.968 0 0 0 -2.82 2h-1.18a2.006 2.006 0 0 1 -2-2v-2z" fill="#4891d3"/><path d="m55 26v2h-8v-4a2.006 2.006 0 0 1 2-2 4 4 0 0 0 4 4z" fill="#d0d8da"/><circle cx="47" cy="26" fill="#57b7eb" r="2"/><path d="m48.82 26.82a2 2 0 1 1 -2.64-2.64 1.891 1.891 0 0 0 -.18.82 2.006 2.006 0 0 0 2 2 1.891 1.891 0 0 0 .82-.18z" fill="#4891d3"/><path d="m61 53h-18a9 9 0 0 1 5.48-8.28 8 8 0 0 0 7.52 5.28h4.48a8.8 8.8 0 0 1 .52 3z" fill="#d0d8da"/><path d="m26 50v3h-18a11.962 11.962 0 0 1 3.51-8.49 11.06 11.06 0 0 1 1.58-1.32 8 8 0 0 0 7.91 6.81z" fill="#d0d8da"/><path d="m37 35a2.015 2.015 0 0 1 -2 2h-8a2.006 2.006 0 0 1 -2-2 2.015 2.015 0 0 1 2-2 2.006 2.006 0 0 0 2 2z" fill="#4891d3"/><path d="m55.6 48.2a6.083 6.083 0 0 0 -7.194 0 1 1 0 0 0 1.2 1.6 4.051 4.051 0 0 1 4.794 0 1 1 0 1 0 1.2-1.6z" fill="#93999a"/><g fill="#57b7eb"><circle cx="29" cy="41" r="1"/><circle cx="29" cy="44" r="1"/><path d="m20 46h-2a1 1 0 0 1 0-2h2a1 1 0 0 1 0 2z"/><path d="m20 50h-4a1 1 0 0 1 0-2h4a1 1 0 0 1 0 2z"/><path d="m41 23h-9a1 1 0 0 1 0-2h9a1 1 0 0 1 0 2z"/><path d="m46 18h-10a1 1 0 0 1 0-2h10a1 1 0 0 1 0 2z"/><path d="m39 13h-8a1 1 0 0 1 0-2h8a1 1 0 0 1 0 2z"/><path d="m39 29h-5a1 1 0 0 1 0-2h5a1 1 0 0 1 0 2z"/><path d="m8 57h-2a1 1 0 0 1 0-2h2a1 1 0 0 1 0 2z"/><path d="m9 43h-5a1 1 0 0 1 0-2h5a1 1 0 0 1 0 2z"/><path d="m43 39h-3a1 1 0 0 1 0-2h3a1 1 0 0 1 0 2z"/><path d="m38 44h-2a1 1 0 0 1 0-2h2a1 1 0 0 1 0 2z"/><path d="m52.64 37h-1.64a1 1 0 0 1 0-2h1.27z"/><path d="m53.18 39.98a1.1 1.1 0 0 1 -.18.02h-2a1 1 0 0 1 0-2h1.82z"/></g><path d="m52.21 40h-1.21a1 1 0 0 1 -1-1 .99.99 0 0 1 .82-.98 11.936 11.936 0 0 0 1.39 1.98z" fill="#656b76"/><path d="m52.21 40h-1.21a1 1 0 0 1 -1-1 .99.99 0 0 1 .82-.98 11.936 11.936 0 0 0 1.39 1.98z" fill="#4891d3"/><path d="m28.07 41.36a.857.857 0 0 1 -.07-.36 1 1 0 0 1 .73-.96 3 3 0 0 0 -.66 1.32z" fill="#4891d3"/><path d="m29 45a1 1 0 0 1 -1-1 1.053 1.053 0 0 1 .2-.6 4.909 4.909 0 0 0 .8 1.6z" fill="#4891d3"/><path d="m20.24 49.97a.986.986 0 0 1 -.24.03h-4a1 1 0 0 1 -1-1 .988.988 0 0 1 .75-.96 8.092 8.092 0 0 0 4.49 1.93z" fill="#4891d3"/></g></g></g></g></svg>