<svg height="512" viewBox="0 0 64 64" width="512" xmlns="http://www.w3.org/2000/svg"><g id="Flat"><g id="Stroke_copy_2" data-name="Stroke copy 2"><g><g><rect fill="#84d2f4" height="41" rx="6" width="58" x="3" y="3"/><path d="m13 55h38a4 4 0 0 1 4 4v2a0 0 0 0 1 0 0h-46a0 0 0 0 1 0 0v-2a4 4 0 0 1 4-4z" fill="#e9f1f2"/><path d="m42 44h-20a13.082 13.082 0 0 1 -5.824 10.883l-.176.117h32l-.176-.117a13.082 13.082 0 0 1 -5.824-10.883z" fill="#d0d8da"/><path d="m55 59v2h-46v-2a4 4 0 0 1 4-4h.13a3.992 3.992 0 0 0 3.87 3h37.87a3.657 3.657 0 0 1 .13 1z" fill="#d0d8da"/><path d="m42 44h-20a13.082 13.082 0 0 1 -5.824 10.883l-.176.117z" fill="#93999a"/><path d="m61 33v5a6 6 0 0 1 -6 6h-46a6 6 0 0 1 -6-6v-29a6 6 0 0 1 6-6h7v8a22 22 0 0 0 22 22z" fill="#57b7eb"/><g fill="#7ab92d"><path d="m45 24a1 1 0 0 0 0 2h10a1 1 0 0 0 0-2z"/><path d="m55 28h-14a1 1 0 0 0 0 2h14a1 1 0 0 0 0-2z"/><path d="m55 33a1 1 0 0 0 -1-1h-10a1 1 0 0 0 0 2h10a1 1 0 0 0 1-1z"/></g><path d="m55 36h-6a1 1 0 0 0 0 2h6a1 1 0 0 0 0-2z" fill="#5ba006"/><path d="m52 18a1.5 1.5 0 0 1 -1.5-1.5 1 1 0 0 0 -2 0 3.494 3.494 0 0 0 2.5 3.337v1.163a1 1 0 0 0 2 0v-1.163a3.49 3.49 0 0 0 -1-6.837 1.5 1.5 0 1 1 1.5-1.5 1 1 0 0 0 2 0 3.494 3.494 0 0 0 -2.5-3.337v-1.163a1 1 0 0 0 -2 0v1.163a3.49 3.49 0 0 0 1 6.837 1.5 1.5 0 0 1 0 3z" fill="#f9e109"/><path d="m41 14h1v1a1 1 0 0 0 2 0v-1h1a1 1 0 0 0 0-2h-1v-1a1 1 0 0 0 -2 0v1h-1a1 1 0 0 0 0 2z" fill="#f9e109"/><path d="m55 33a1 1 0 0 1 -1 1h-10a1 1 0 0 1 -1-1z" fill="#7ab92d"/><path d="m55 33a1 1 0 0 1 -1 1h-10a1 1 0 0 1 -1-1z" fill="#5ba006"/></g><g><path d="m32.374 29.874h4v9h-4z" fill="#d0d8da" transform="matrix(.707 -.707 .707 .707 -14.238 34.374)"/><path d="m38.97 36.14-2.83 2.83-6.36-6.36 2.83-2.83 2.15 2.15a13.735 13.735 0 0 1 -1.26 2.36 3.994 3.994 0 0 0 4.29.67z" fill="#93999a"/><circle cx="22" cy="22" fill="#e9f1f2" r="15"/><path d="m35.45 28.66a15.006 15.006 0 1 1 -24.06-17.27c.37-.37.76-.72 1.16-1.05a15.01 15.01 0 0 0 22.9 18.32z" fill="#d0d8da"/><rect fill="#f9e109" height="14" rx="2" transform="matrix(.707 -.707 .707 .707 -17.607 42.506)" width="8" x="38.506" y="35.506"/><circle cx="22" cy="22" fill="#84d2f4" r="11"/><path d="m29.78 14.22a11 11 0 1 0 0 15.56 11.015 11.015 0 0 0 0-15.56zm-14.03.63a11 11 0 0 1 15.2 11.15 16.017 16.017 0 0 1 -15.2-11.15z" fill="#57b7eb"/><g><path d="m25 26h-4a1 1 0 0 0 0 2h4a1 1 0 0 0 0-2z" fill="#f8664f"/><path d="m21.673 20.263a1 1 0 0 0 1.93-.526l-1-3.668a1 1 0 0 0 -.84-.729l-2.638-.332a1 1 0 1 0 -.25 1.984l1.975.248z" fill="#f9e109"/><path d="m25 27h-4l-1-8h6z" fill="#f89c8d"/><path d="m25.29 24.67-.29 2.33h-4l-1-8h2.25l.25 2.03a4.551 4.551 0 0 0 2.79 3.64z" fill="#f8664f"/><path d="m21 28h-3a2 2 0 0 1 -2-2 2 2 0 0 1 2-2h3a2 2 0 0 1 2 2 2 2 0 0 1 -2 2z" fill="#f9e109"/><path d="m23 26a2.015 2.015 0 0 1 -2 2h-3a2.006 2.006 0 0 1 -2-2 2.03 2.03 0 0 1 1.02-1.74 2.005 2.005 0 0 0 1.98 1.74h3a1.914 1.914 0 0 0 .98-.26 2.112 2.112 0 0 1 .02.26z" fill="#fcbc04"/></g><path d="m26.61 31.99a11 11 0 0 1 -15.36-12.3 14.974 14.974 0 0 0 15.36 12.3z" fill="#4891d3"/><path d="m15.39 27.61a14.955 14.955 0 0 1 -4.14-7.92 11 11 0 0 0 15.36 12.3 14.988 14.988 0 0 1 -11.22-4.38z" fill="#4891d3"/><path d="m48.87 46.04-2.83 2.83a2 2 0 0 1 -2.83 0l-7.07-7.07a2 2 0 0 1 0-2.83l.59-.58 3.65 3.65a6.008 6.008 0 0 0 7.86.54l.63.63a2 2 0 0 1 0 2.83z" fill="#fcbc04"/></g></g></g></g></svg>