<svg height="512" viewBox="0 0 64 64" width="512" xmlns="http://www.w3.org/2000/svg"><g id="Flat"><g id="Stroke_copy_2" data-name="Stroke copy 2"><g><path d="m42.118 12.515a1 1 0 0 1 -.709-1.707l2.826-2.831a1 1 0 1 1 1.415 1.413l-2.825 2.831a.994.994 0 0 1 -.707.294z" fill="#f9e109"/><path d="m3 52h58a0 0 0 0 1 0 0v4a4 4 0 0 1 -4 4h-50a4 4 0 0 1 -4-4v-4a0 0 0 0 1 0 0z" fill="#e9f1f2"/><path d="m12 22h40a4 4 0 0 1 4 4v26a0 0 0 0 1 0 0h-48a0 0 0 0 1 0 0v-26a4 4 0 0 1 4-4z" fill="#84d2f4"/><path d="m28 52h8v4h-8z" fill="#93999a"/><path d="m56 46v6h-48v-26a4 4 0 0 1 4-4h3v5a19 19 0 0 0 19 19z" fill="#57b7eb"/><path d="m61 56a4 4 0 0 1 -4 4h-50a4 4 0 0 1 -4-4v-4h4a4 4 0 0 0 4 4z" fill="#d0d8da"/><g fill="#93999a"><circle cx="51" cy="56" r="1"/><circle cx="55" cy="56" r="1"/><circle cx="9" cy="56" r="1"/><circle cx="13" cy="56" r="1"/></g><path d="m20 29h24v19h-24z" fill="#c4f236"/><path d="m22 35.72v.28a8 8 0 0 0 8 8h14v4h-24v-19h24v6.73a2 2 0 0 1 -3-1.73 2 2 0 0 1 -4 0 2 2 0 0 1 -4 0 2 2 0 0 1 -4 0 2 2 0 0 1 -4 0 1.984 1.984 0 0 1 -3 1.72z" fill="#a1d51c"/><path d="m23 20h18a3 3 0 0 1 3 3v2a0 0 0 0 1 0 0h-24a0 0 0 0 1 0 0v-2a3 3 0 0 1 3-3z" fill="#a1d51c"/><path d="m37.243 21.485-1.486-1.485h-11.171l-.106.106c-.016-.034-.028-.071-.044-.106h-1.436a3 3 0 0 0 -3 3v2h24v-2h-6.181a1.99 1.99 0 0 0 -.576-1.515zm-8.243 1.515a4.949 4.949 0 0 1 -1.5-.255l2.674-2.674 2.926 2.929z" fill="#7ab92d"/><path d="m20 25h24a2 2 0 0 1 2 2v2a0 0 0 0 1 0 0h-28a0 0 0 0 1 0 0v-2a2 2 0 0 1 2-2z" fill="#a1d51c"/><path d="m20 35a2 2 0 0 1 -2-2v-4h4v4a2 2 0 0 1 -2 2z" fill="#f8664f"/><path d="m24 35a2 2 0 0 1 -2-2v-4h4v4a2 2 0 0 1 -2 2z" fill="#84d2f4"/><path d="m28 35a2 2 0 0 1 -2-2v-4h4v4a2 2 0 0 1 -2 2z" fill="#f8664f"/><path d="m32 35a2 2 0 0 1 -2-2v-4h4v4a2 2 0 0 1 -2 2z" fill="#84d2f4"/><path d="m36 35a2 2 0 0 1 -2-2v-4h4v4a2 2 0 0 1 -2 2z" fill="#f8664f"/><path d="m40 35a2 2 0 0 1 -2-2v-4h4v4a2 2 0 0 1 -2 2z" fill="#84d2f4"/><path d="m44 35a2 2 0 0 1 -2-2v-4h4v4a2 2 0 0 1 -2 2z" fill="#f8664f"/><path d="m24 40h6v8h-6z" fill="#84d2f4"/><path d="m34 40h6v4h-6z" fill="#84d2f4"/><g><path d="m39.243 24.314a2 2 0 0 1 -2.829 0l-11.314-11.314 2.829-2.828 11.314 11.313a2 2 0 0 1 0 2.829z" fill="#fcbc04"/><path d="m39.24 24.31a2 2 0 0 1 -2.83 0l-11.31-11.31 2.83-2.83 1.16 1.16a3.979 3.979 0 0 1 -1.08 2.58l.5.5a3.988 3.988 0 0 0 4.48.82l3.03 3.03a3 3 0 0 0 .27 3.93l.05.05a2.085 2.085 0 0 0 2.65.29 1.976 1.976 0 0 0 .57-.62 1.99 1.99 0 0 1 -.32 2.4z" fill="#e59730"/><path d="m27.929 13a4 4 0 0 1 -5.657 0l-1.414-1.414a4 4 0 0 1 0-5.657 4 4 0 0 1 5.657 0l1.414 1.414a4 4 0 0 1 0 5.657z" fill="#f9e109"/><path d="m25.1 24.314a2 2 0 0 1 0-2.829l11.314-11.313 2.829 2.828-11.314 11.314a2 2 0 0 1 -2.829 0z" fill="#f9e109"/><path d="m39.24 13-11.31 11.31a2 2 0 0 1 -2.83 0 1.974 1.974 0 0 1 -.31-2.4 1.191 1.191 0 0 0 .09.15 2 2 0 0 0 3.05.25l6.01-6a4.981 4.981 0 0 0 1.38-4.41 2.856 2.856 0 0 1 -.06-.58l1.15-1.15z" fill="#fcbc04"/><path d="m36.414 13a4 4 0 0 1 0-5.657l1.414-1.414 5.657 5.657-1.414 1.414a4 4 0 0 1 -5.657 0z" fill="#f7f754"/><path d="m43.49 11.59-1.42 1.41a4 4 0 0 1 -5.81-5.49 3.987 3.987 0 0 0 6.16 3.01z" fill="#f9e109"/><path d="m27.93 13a4.008 4.008 0 0 1 -5.66 0l-1.41-1.41a4.01 4.01 0 0 1 -.88-4.33 4.112 4.112 0 0 0 .88 1.33l1.41 1.41a4.008 4.008 0 0 0 5.66 0 3.956 3.956 0 0 0 .88-1.33 4.007 4.007 0 0 1 -.88 4.33z" fill="#fcbc04"/></g><path d="m46 27v2h-28v-2a2.02 2.02 0 0 1 1.23-1.85 2.991 2.991 0 0 0 2.77 1.85z" fill="#7ab92d"/><path d="m40 44h-6v-4z" fill="#57b7eb"/><path d="m30 40v8h-6v-6.73a7.916 7.916 0 0 0 5 2.67v-.94a2.006 2.006 0 0 0 -2-2h-3v-1z" fill="#57b7eb"/><path d="m45.74 33.98a2 2 0 0 1 -3.74-.98v-4h2v3a2.005 2.005 0 0 0 1.74 1.98z" fill="#cc5144"/><path d="m41.74 33.98a2 2 0 0 1 -3.74-.98v-4h2v3a2.005 2.005 0 0 0 1.74 1.98z" fill="#57b7eb"/><path d="m37.74 33.98a2 2 0 0 1 -3.74-.98v-4h2v3a2.005 2.005 0 0 0 1.74 1.98z" fill="#cc5144"/><path d="m33.74 33.98a2 2 0 0 1 -3.74-.98v-4h2v3a2.005 2.005 0 0 0 1.74 1.98z" fill="#57b7eb"/><path d="m29.74 33.98a2 2 0 0 1 -3.74-.98v-4h2v3a2.005 2.005 0 0 0 1.74 1.98z" fill="#cc5144"/><path d="m21.74 33.98a2 2 0 0 1 -3.74-.98v-4h2v3a2.005 2.005 0 0 0 1.74 1.98z" fill="#cc5144"/><path d="m25.74 33.98a2 2 0 0 1 -3.74-.98v-4h2v3a2.005 2.005 0 0 0 1.74 1.98z" fill="#57b7eb"/><path d="m10 56a1 1 0 1 1 -1.49-.87 3.968 3.968 0 0 0 1.48.74.57.57 0 0 1 .01.13z" fill="#656b76"/><path d="m14 56a1 1 0 0 1 -2 0z" fill="#656b76"/><path d="m52 56a1 1 0 0 1 -2 0z" fill="#656b76"/><path d="m56 56a1 1 0 0 1 -2 0z" fill="#656b76"/><path d="m39.995 10.4a1 1 0 0 1 -.709-1.707l2.826-2.831a1 1 0 0 1 1.415 1.413l-2.827 2.825a1 1 0 0 1 -.705.3z" fill="#f7f754"/><path d="m37.871 8.276a1 1 0 0 1 -.709-1.706l2.827-2.831a1 1 0 0 1 1.411 1.413l-2.822 2.831a1 1 0 0 1 -.707.293z" fill="#f7f754"/><path d="m50.022 48.983a1 1 0 0 1 -1-1l-.006-7a1 1 0 1 1 2 0l.006 7a1 1 0 0 1 -1 1z" fill="#fcbc04"/><path d="m14.022 49.018a1 1 0 0 1 -1-1l-.006-7a1 1 0 0 1 2 0l.006 7a1 1 0 0 1 -1 1z" fill="#fcbc04"/><g fill="#57b7eb"><path d="m53.988 13.1a3.1 3.1 0 0 1 -2.208-.912 1.148 1.148 0 0 0 -1.586 0 1 1 0 1 1 -1.415-1.413 3.2 3.2 0 0 1 4.414 0 1.148 1.148 0 0 0 1.586 0 1 1 0 1 1 1.415 1.412 3.1 3.1 0 0 1 -2.206.913z"/><path d="m53.992 17.1a3.1 3.1 0 0 1 -2.208-.912 1.148 1.148 0 0 0 -1.586 0 1 1 0 1 1 -1.416-1.413 3.2 3.2 0 0 1 4.414 0 1.148 1.148 0 0 0 1.586 0 1 1 0 0 1 1.418 1.409 3.1 3.1 0 0 1 -2.208.916z"/><path d="m13.988 13.139a3.1 3.1 0 0 1 -2.208-.912 1.148 1.148 0 0 0 -1.586 0 1 1 0 1 1 -1.415-1.412 3.2 3.2 0 0 1 4.414-.005 1.148 1.148 0 0 0 1.586 0 1 1 0 1 1 1.415 1.413 3.1 3.1 0 0 1 -2.206.916z"/><path d="m13.992 17.139a3.1 3.1 0 0 1 -2.208-.912 1.148 1.148 0 0 0 -1.586 0 1 1 0 1 1 -1.416-1.412 3.2 3.2 0 0 1 4.414-.005 1.148 1.148 0 0 0 1.586 0 1 1 0 1 1 1.418 1.413 3.1 3.1 0 0 1 -2.208.916z"/></g><ellipse cx="50" cy="36.5" fill="#a1d51c" rx="3" ry="4.5"/><ellipse cx="14" cy="36.5" fill="#a1d51c" rx="3" ry="4.5"/><path d="m16.925 37.46c-.285 2.025-1.485 3.54-2.925 3.54-1.65 0-3-2.01-3-4.5a5.193 5.193 0 0 1 1.56-3.96c-.03.315-.06.63-.06.96 0 2.49 1.35 4.5 3 4.5a2.249 2.249 0 0 0 1.425-.54z" fill="#7ab92d"/><path d="m52.925 37.46c-.285 2.025-1.485 3.54-2.925 3.54-1.65 0-3-2.01-3-4.5a5.193 5.193 0 0 1 1.56-3.96c-.03.315-.06.63-.06.96 0 2.49 1.35 4.5 3 4.5a2.249 2.249 0 0 0 1.425-.54z" fill="#7ab92d"/><path d="m52.022 48.981-40 .039a1 1 0 0 1 0-2l40-.039a1 1 0 1 1 0 2z" fill="#7ab92d"/></g></g></g></svg>