<svg height="512" viewBox="0 0 64 64" width="512" xmlns="http://www.w3.org/2000/svg"><g id="Flat"><g id="Stroke_copy_2" data-name="Stroke copy 2"><g><path d="m33.256 11.971-.456-1.947.973-.23c1.899-.449 3.227-1.594 3.227-2.794 0-1.626-2.29-3-5-3s-5 1.374-5 3c0 1.2 1.328 2.345 3.23 2.794l.973.23-.459 1.947-.974-.23c-2.853-.674-4.77-2.579-4.77-4.741 0-2.8 3.075-5 7-5s7 2.2 7 5c0 2.162-1.917 4.067-4.77 4.741z" fill="#d0d8da"/><path d="m34 18h-4v-8a2 2 0 0 1 2-2 2 2 0 0 1 2 2z" fill="#d0d8da"/><path d="m34 10.96v7.04h-4v-8a1.993 1.993 0 0 1 1.08-1.77 3.491 3.491 0 0 0 2.92 2.73z" fill="#93999a"/><circle cx="32" cy="37" fill="#e9f1f2" r="24"/><path d="m53.35 47.94a23.994 23.994 0 1 1 -34.7-30.88 23.7 23.7 0 0 0 -2.65 10.94 24 24 0 0 0 37.35 19.94z" fill="#d0d8da"/><circle cx="32" cy="37" fill="#84d2f4" r="20"/><path d="m40.071 38 1.414-1.414-5.657-5.657-1.414 1.414a3.984 3.984 0 0 0 -1.022 3.851l-3.22 3.22-3.221-3.22a3.984 3.984 0 0 0 -1.022-3.851l-1.414-1.414a4 4 0 0 0 -5.657 5.657l1.414 1.414a3.983 3.983 0 0 0 3.85 1.022l3.221 3.221-4.243 4.242a2 2 0 1 0 2.829 2.829l4.243-4.243 4.242 4.243a2 2 0 1 0 2.829-2.829l-4.243-4.242 3.221-3.221a3.983 3.983 0 0 0 3.85-1.022z" fill="#57b7eb"/><path d="m47.55 49.56a19.694 19.694 0 0 0 2.45-9.56 19.993 19.993 0 0 0 -33.88-14.39 23.609 23.609 0 0 0 -.12 2.39 24.006 24.006 0 0 0 24 24 23.366 23.366 0 0 0 6.06-.79 20.061 20.061 0 1 1 1.49-1.65z" fill="#57b7eb"/><g><g><path d="m42.132 36.525a1 1 0 0 1 -.707-1.707l2.828-2.828a1 1 0 0 1 1.414 1.41l-2.828 2.828a1 1 0 0 1 -.707.297z" fill="#f9e109"/><g fill="#f7f754"><path d="m40.01 34.4a1 1 0 0 1 -.71-1.7l2.829-2.829a1 1 0 0 1 1.414 1.414l-2.829 2.829a1 1 0 0 1 -.704.286z"/><path d="m37.889 32.282a1 1 0 0 1 -.707-1.707l2.829-2.828a1 1 0 1 1 1.414 1.414l-2.825 2.828a.993.993 0 0 1 -.711.293z"/></g></g><path d="m39.243 48.314a2 2 0 0 1 -2.829 0l-11.314-11.314 2.829-2.828 11.314 11.313a2 2 0 0 1 0 2.829z" fill="#fcbc04"/><path d="m39.24 48.31a2 2 0 0 1 -2.83 0l-11.31-11.31 2.83-2.83 1.16 1.16a3.979 3.979 0 0 1 -1.08 2.58l.5.5a3.988 3.988 0 0 0 4.48.82l3.03 3.03a3 3 0 0 0 .27 3.93l.05.05a2.085 2.085 0 0 0 2.65.29 1.976 1.976 0 0 0 .57-.62 1.99 1.99 0 0 1 -.32 2.4z" fill="#e59730"/><path d="m27.929 37a4 4 0 0 1 -5.657 0l-1.414-1.414a4 4 0 0 1 0-5.657 4 4 0 0 1 5.657 0l1.414 1.414a4 4 0 0 1 0 5.657z" fill="#f9e109"/><path d="m25.1 48.314a2 2 0 0 1 0-2.829l11.314-11.313 2.829 2.828-11.314 11.314a2 2 0 0 1 -2.829 0z" fill="#f9e109"/><path d="m39.24 37-11.31 11.31a2 2 0 0 1 -2.83 0 1.974 1.974 0 0 1 -.31-2.4 1.191 1.191 0 0 0 .09.15 2 2 0 0 0 3.05.25l6.01-6a4.981 4.981 0 0 0 1.38-4.41 2.856 2.856 0 0 1 -.06-.58l1.15-1.15z" fill="#fcbc04"/><path d="m36.414 37a4 4 0 0 1 0-5.657l1.414-1.414 5.657 5.657-1.414 1.414a4 4 0 0 1 -5.657 0z" fill="#f7f754"/><path d="m43.49 35.59-1.42 1.41a4 4 0 0 1 -5.81-5.49 3.987 3.987 0 0 0 6.16 3.01z" fill="#f9e109"/><path d="m27.93 37a4.008 4.008 0 0 1 -5.66 0l-1.41-1.41a4.01 4.01 0 0 1 -.88-4.33 4.112 4.112 0 0 0 .88 1.33l1.41 1.41a4.008 4.008 0 0 0 5.66 0 3.956 3.956 0 0 0 .88-1.33 4.007 4.007 0 0 1 -.88 4.33z" fill="#fcbc04"/></g><g fill="#f7f754"><path d="m15 38h-2.97v-2h2.97a1 1 0 0 1 0 2z"/><path d="m17.78 46.37-2.57 1.48a16.608 16.608 0 0 1 -1.01-1.73l2.58-1.49a1 1 0 0 1 1 1.74z"/><path d="m18.14 29a.991.991 0 0 1 -.86.5 1.009 1.009 0 0 1 -.5-.13l-2.58-1.49a16.608 16.608 0 0 1 1.01-1.73l2.57 1.48a1 1 0 0 1 .36 1.37z"/><path d="m24.37 52.22-1.49 2.58a16.608 16.608 0 0 1 -1.73-1.01l1.48-2.57a1 1 0 0 1 1.74 1z"/><path d="m24.37 21.78a1 1 0 0 1 -.37 1.36.993.993 0 0 1 -1.37-.36l-1.48-2.57a16.608 16.608 0 0 1 1.73-1.01z"/><path d="m32 17c.33 0 .67.01 1 .03v2.97a1 1 0 0 1 -2 0v-2.97c.33-.02.67-.03 1-.03z"/><path d="m33 54v2.97c-.33.02-.67.03-1 .03s-.67-.01-1-.03v-2.97a1 1 0 0 1 2 0z"/><path d="m42.85 53.79a16.608 16.608 0 0 1 -1.73 1.01l-1.49-2.58a1 1 0 0 1 1.74-1z"/><path d="m41.12 19.2a16.608 16.608 0 0 1 1.73 1.01l-1.48 2.57a.993.993 0 0 1 -1.37.36 1 1 0 0 1 -.37-1.36z"/><path d="m49.8 46.12a16.608 16.608 0 0 1 -1.01 1.73l-2.57-1.48a1 1 0 0 1 1-1.74z"/><path d="m45.86 29a1 1 0 0 1 .36-1.37l2.57-1.48 1.01 1.73-2.58 1.49a1.009 1.009 0 0 1 -.5.13.991.991 0 0 1 -.86-.5z"/><path d="m52 37c0 .33-.01.67-.03 1h-2.97a1 1 0 0 1 0-2h2.97c.02.33.03.67.03 1z"/></g><g fill="#93999a"><path d="m33 17.03v2.97a1 1 0 0 1 -2 0v-2.97c.33-.02.67-.03 1-.03s.67.01 1 .03z"/><path d="m33 54v2.97c-.33.02-.67.03-1 .03s-.67-.01-1-.03v-2.97a1 1 0 0 1 2 0z"/><path d="m52 37c0 .33-.01.67-.03 1h-2.97a1 1 0 0 1 0-2h2.97c.02.33.03.67.03 1z"/><path d="m16 37a1 1 0 0 1 -1 1h-2.97v-2h2.97a1 1 0 0 1 1 1z"/><path d="m24 23.14a.993.993 0 0 1 -1.37-.36l-1.48-2.57a16.608 16.608 0 0 1 1.73-1.01l1.49 2.58a1 1 0 0 1 -.37 1.36z"/><path d="m42.85 53.79a16.608 16.608 0 0 1 -1.73 1.01l-1.49-2.58a1 1 0 0 1 1.74-1z"/><path d="m49.8 27.88-2.58 1.49a1.009 1.009 0 0 1 -.5.13 1 1 0 0 1 -.5-1.87l2.57-1.48z"/><path d="m17.78 46.37-2.57 1.48a16.608 16.608 0 0 1 -1.01-1.73l2.58-1.49a1 1 0 0 1 1 1.74z"/><path d="m18.14 29a.991.991 0 0 1 -.86.5 1.009 1.009 0 0 1 -.5-.13l-2.58-1.49a16.608 16.608 0 0 1 1.01-1.73l2.57 1.48a1 1 0 0 1 .36 1.37z"/><path d="m49.8 46.12a16.608 16.608 0 0 1 -1.01 1.73l-2.57-1.48a1 1 0 0 1 1-1.74z"/><path d="m42.85 20.21-1.48 2.57a.993.993 0 0 1 -1.37.36 1 1 0 0 1 -.37-1.36l1.49-2.58a16.608 16.608 0 0 1 1.73 1.01z"/><path d="m22.88 54.8 1.49-2.58a1 1 0 0 0 -1.74-1l-1.48 2.57z"/></g><g fill="#d0d8da"><path d="m32.97 20.22a1 1 0 0 1 -1.97-.19 18.007 18.007 0 0 1 1.97.19z"/><path d="m49.9 38h-.9a1 1 0 0 1 0-2h.6c.13.65.23 1.32.3 2z"/><path d="m24 23.14a.993.993 0 0 1 -1.37-.36l-.64-1.11a17.249 17.249 0 0 1 1.9-.71h.01l.47.82a1 1 0 0 1 -.37 1.36z"/><path d="m41.78 51.93c-.59.05-1.18.07-1.78.07-.15 0-.31 0-.46-.01a.982.982 0 0 1 .46-1.13 1 1 0 0 1 1.37.36z"/><path d="m46.99 29.46a.842.842 0 0 1 -.27.04 1 1 0 0 1 -.8-1.59 15.854 15.854 0 0 1 1.07 1.55z"/><path d="m18.14 29a.991.991 0 0 1 -.86.5 1.009 1.009 0 0 1 -.5-.13l-.76-.44c-.01-.31-.02-.62-.02-.93 0-.46.01-.92.04-1.37l1.74 1a1 1 0 0 1 .36 1.37z"/><path d="m47.22 44.63 1.93 1.11a17.445 17.445 0 0 1 -.68 1.92l-2.25-1.29a1 1 0 0 1 1-1.74z"/><path d="m40.85 23.21a.842.842 0 0 1 -.35.07 1.022 1.022 0 0 1 -.5-.14.944.944 0 0 1 -.48-.73c.46.25.9.51 1.33.8z"/></g></g></g></g></svg>